<?xml version="1.0" encoding="UTF-8" standalone="no"?>
<!DOCTYPE svg PUBLIC "-//W3C//DTD SVG 1.1//EN"
 "http://www.w3.org/Graphics/SVG/1.1/DTD/svg11.dtd">
<!-- Generated by graphviz version 2.38.0 (20140413.2041)
 -->
<!-- Title: G Pages: 1 -->
<svg width="634pt" height="448pt"
 viewBox="0.00 0.00 633.50 448.00" xmlns="http://www.w3.org/2000/svg" xmlns:xlink="http://www.w3.org/1999/xlink">
<g id="graph0" class="graph" transform="scale(1 1) rotate(0) translate(4 444)">
<title>G</title>
<polygon fill="white" stroke="none" points="-4,4 -4,-444 629.5,-444 629.5,4 -4,4"/>
<!-- website_example/a.html -->
<g id="node1" class="node"><title>website_example/a.html</title>
<polygon fill="lavenderblush" stroke="black" points="251,-401.5 251,-439.5 400,-439.5 400,-401.5 251,-401.5"/>
<text text-anchor="middle" x="325.5" y="-424.3" font-family="Times New Roman,serif" font-size="14.00">«HTML»</text>
<text text-anchor="middle" x="325.5" y="-409.3" font-family="Times New Roman,serif" font-size="14.00">website_example/a.html</text>
</g>
<!-- website_example/b.html -->
<g id="node2" class="node"><title>website_example/b.html</title>
<polygon fill="lavenderblush" stroke="black" points="302,-303 302,-341 453,-341 453,-303 302,-303"/>
<text text-anchor="middle" x="377.5" y="-325.8" font-family="Times New Roman,serif" font-size="14.00">«HTML»</text>
<text text-anchor="middle" x="377.5" y="-310.8" font-family="Times New Roman,serif" font-size="14.00">website_example/b.html</text>
</g>
<!-- website_example/a.html&#45;&gt;website_example/b.html -->
<g id="edge9" class="edge"><title>website_example/a.html&#45;&gt;website_example/b.html</title>
<path fill="none" stroke="black" d="M335.281,-401.349C343.052,-386.927 354.043,-366.531 362.862,-350.165"/>
<polygon fill="black" stroke="black" points="366.1,-351.533 367.763,-341.07 359.938,-348.212 366.1,-351.533"/>
</g>
<!-- website_example/c.html -->
<g id="node3" class="node"><title>website_example/c.html</title>
<polygon fill="lavenderblush" stroke="black" points="199.5,-178 199.5,-216 349.5,-216 349.5,-178 199.5,-178"/>
<text text-anchor="middle" x="274.5" y="-200.8" font-family="Times New Roman,serif" font-size="14.00">«HTML»</text>
<text text-anchor="middle" x="274.5" y="-185.8" font-family="Times New Roman,serif" font-size="14.00">website_example/c.html</text>
</g>
<!-- website_example/a.html&#45;&gt;website_example/c.html -->
<g id="edge10" class="edge"><title>website_example/a.html&#45;&gt;website_example/c.html</title>
<path fill="none" stroke="black" d="M311.729,-401.337C304.771,-391.187 296.891,-377.994 292.5,-365 276.661,-318.135 273.91,-260.049 273.856,-226.192"/>
<polygon fill="black" stroke="black" points="277.356,-226.118 273.92,-216.096 270.356,-226.073 277.356,-226.118"/>
</g>
<!-- website_example/css/a.css -->
<g id="node4" class="node"><title>website_example/css/a.css</title>
<polygon fill="palegreen" stroke="black" points="0,-27 0,-88 167,-88 167,-27 0,-27"/>
<text text-anchor="middle" x="83.5" y="-72.8" font-family="Times New Roman,serif" font-size="14.00">«CSS»</text>
<text text-anchor="middle" x="83.5" y="-57.8" font-family="Times New Roman,serif" font-size="14.00">website_example/css/a.css</text>
<polyline fill="none" stroke="black" points="0,-50 167,-50 "/>
<text text-anchor="start" x="8" y="-34.8" font-family="Times New Roman,serif" font-size="14.00">p</text>
</g>
<!-- website_example/a.html&#45;&gt;website_example/css/a.css -->
<g id="edge8" class="edge"><title>website_example/a.html&#45;&gt;website_example/css/a.css</title>
<path fill="none" stroke="black" d="M306.234,-401.356C295.774,-391.106 282.894,-377.811 272.5,-365 200.343,-276.063 134.67,-157.453 103.154,-97.1857"/>
<polygon fill="black" stroke="black" points="106.111,-95.2861 98.3937,-88.0276 99.9005,-98.5147 106.111,-95.2861"/>
</g>
<!-- website_example/js/s1.js -->
<g id="node7" class="node"><title>website_example/js/s1.js</title>
<polygon fill="aliceblue" stroke="black" points="471.5,-279.5 471.5,-364.5 625.5,-364.5 625.5,-279.5 471.5,-279.5"/>
<text text-anchor="middle" x="548.5" y="-349.3" font-family="Times New Roman,serif" font-size="14.00">«JavaScript»</text>
<text text-anchor="middle" x="548.5" y="-334.3" font-family="Times New Roman,serif" font-size="14.00">website_example/js/s1.js</text>
<polyline fill="none" stroke="black" points="471.5,-326.5 625.5,-326.5 "/>
<text text-anchor="start" x="479.5" y="-311.3" font-family="Times New Roman,serif" font-size="14.00">foo</text>
<polyline fill="none" stroke="black" points="471.5,-303.5 625.5,-303.5 "/>
</g>
<!-- website_example/a.html&#45;&gt;website_example/js/s1.js -->
<g id="edge5" class="edge"><title>website_example/a.html&#45;&gt;website_example/js/s1.js</title>
<path fill="none" stroke="black" d="M373.42,-401.46C397.717,-392.079 427.813,-380.104 462.01,-365.14"/>
<polygon fill="black" stroke="black" points="463.536,-368.293 471.274,-361.057 460.712,-361.887 463.536,-368.293"/>
</g>
<!-- website_example/b.html&#45;&gt;website_example/c.html -->
<g id="edge1" class="edge"><title>website_example/b.html&#45;&gt;website_example/c.html</title>
<path fill="none" stroke="black" d="M362.302,-302.851C344.882,-282.048 316.187,-247.782 296.368,-224.114"/>
<polygon fill="black" stroke="black" points="298.864,-221.643 289.76,-216.224 293.497,-226.138 298.864,-221.643"/>
</g>
<!-- website_example/css/main.css -->
<g id="node5" class="node"><title>website_example/css/main.css</title>
<polygon fill="palegreen" stroke="black" points="406,-151.5 406,-242.5 593,-242.5 593,-151.5 406,-151.5"/>
<text text-anchor="middle" x="499.5" y="-227.3" font-family="Times New Roman,serif" font-size="14.00">«CSS»</text>
<text text-anchor="middle" x="499.5" y="-212.3" font-family="Times New Roman,serif" font-size="14.00">website_example/css/main.css</text>
<polyline fill="none" stroke="black" points="406,-204.5 593,-204.5 "/>
<text text-anchor="start" x="414" y="-189.3" font-family="Times New Roman,serif" font-size="14.00">body</text>
<text text-anchor="start" x="414" y="-174.3" font-family="Times New Roman,serif" font-size="14.00">foo</text>
<text text-anchor="start" x="414" y="-159.3" font-family="Times New Roman,serif" font-size="14.00">bar</text>
</g>
<!-- website_example/b.html&#45;&gt;website_example/css/main.css -->
<g id="edge3" class="edge"><title>website_example/b.html&#45;&gt;website_example/css/main.css</title>
<path fill="none" stroke="black" d="M395.502,-302.851C409.369,-288.869 429.27,-268.806 447.957,-249.965"/>
<polygon fill="black" stroke="black" points="450.761,-252.109 455.318,-242.544 445.791,-247.18 450.761,-252.109"/>
</g>
<!-- website_example/js/s.js -->
<g id="node6" class="node"><title>website_example/js/s.js</title>
<polygon fill="aliceblue" stroke="black" points="382,-0.5 382,-114.5 529,-114.5 529,-0.5 382,-0.5"/>
<text text-anchor="middle" x="455.5" y="-99.3" font-family="Times New Roman,serif" font-size="14.00">«JavaScript»</text>
<text text-anchor="middle" x="455.5" y="-84.3" font-family="Times New Roman,serif" font-size="14.00">website_example/js/s.js</text>
<polyline fill="none" stroke="black" points="382,-76.5 529,-76.5 "/>
<text text-anchor="start" x="390" y="-61.3" font-family="Times New Roman,serif" font-size="14.00">a</text>
<text text-anchor="start" x="390" y="-46.3" font-family="Times New Roman,serif" font-size="14.00">b</text>
<polyline fill="none" stroke="black" points="382,-38.5 529,-38.5 "/>
<text text-anchor="start" x="390" y="-23.3" font-family="Times New Roman,serif" font-size="14.00">barFunc()</text>
<text text-anchor="start" x="390" y="-8.3" font-family="Times New Roman,serif" font-size="14.00">barFuncB()</text>
</g>
<!-- website_example/b.html&#45;&gt;website_example/js/s.js -->
<g id="edge4" class="edge"><title>website_example/b.html&#45;&gt;website_example/js/s.js</title>
<path fill="none" stroke="black" d="M376.874,-302.531C376.375,-270.649 377.905,-203.644 396.5,-151 399.783,-141.706 404.15,-132.389 409.028,-123.439"/>
<polygon fill="black" stroke="black" points="412.14,-125.046 414.055,-114.625 406.06,-121.578 412.14,-125.046"/>
</g>
<!-- website_example/c.html&#45;&gt;website_example/css/a.css -->
<g id="edge2" class="edge"><title>website_example/c.html&#45;&gt;website_example/css/a.css</title>
<path fill="none" stroke="black" d="M249.137,-177.741C219.608,-156.483 170.141,-120.872 132.938,-94.0899"/>
<polygon fill="black" stroke="black" points="134.882,-91.1768 124.721,-88.1748 130.792,-96.8578 134.882,-91.1768"/>
</g>
<!-- website_example/c.html&#45;&gt;website_example/js/s.js -->
<g id="edge7" class="edge"><title>website_example/c.html&#45;&gt;website_example/js/s.js</title>
<path fill="none" stroke="black" d="M298.535,-177.741C317.878,-163.047 346.249,-141.495 373.568,-120.741"/>
<polygon fill="black" stroke="black" points="375.773,-123.462 381.618,-114.626 371.538,-117.888 375.773,-123.462"/>
</g>
<!-- website_example/js/sClass.js -->
<g id="node8" class="node"><title>website_example/js/sClass.js</title>
<polygon fill="aliceblue" stroke="black" points="185.5,-0.5 185.5,-114.5 363.5,-114.5 363.5,-0.5 185.5,-0.5"/>
<text text-anchor="middle" x="274.5" y="-99.3" font-family="Times New Roman,serif" font-size="14.00">«JavaScript»</text>
<text text-anchor="middle" x="274.5" y="-84.3" font-family="Times New Roman,serif" font-size="14.00">website_example/js/sClass.js</text>
<polyline fill="none" stroke="black" points="185.5,-76.5 363.5,-76.5 "/>
<text text-anchor="start" x="193.5" y="-61.3" font-family="Times New Roman,serif" font-size="14.00">c</text>
<text text-anchor="start" x="193.5" y="-46.3" font-family="Times New Roman,serif" font-size="14.00">d</text>
<polyline fill="none" stroke="black" points="185.5,-38.5 363.5,-38.5 "/>
<text text-anchor="start" x="193.5" y="-23.3" font-family="Times New Roman,serif" font-size="14.00">fooFuncA()</text>
<text text-anchor="start" x="193.5" y="-8.3" font-family="Times New Roman,serif" font-size="14.00">fooFuncB()</text>
</g>
<!-- website_example/c.html&#45;&gt;website_example/js/sClass.js -->
<g id="edge6" class="edge"><title>website_example/c.html&#45;&gt;website_example/js/sClass.js</title>
<path fill="none" stroke="black" d="M274.5,-177.741C274.5,-163.993 274.5,-144.241 274.5,-124.757"/>
<polygon fill="black" stroke="black" points="278,-124.626 274.5,-114.626 271,-124.626 278,-124.626"/>
</g>
</g>
</svg>
