<?xml version="1.0" encoding="UTF-8" standalone="no"?>
<!DOCTYPE svg PUBLIC "-//W3C//DTD SVG 1.1//EN"
 "http://www.w3.org/Graphics/SVG/1.1/DTD/svg11.dtd">
<!-- Generated by graphviz version 2.38.0 (20140413.2041)
 -->
<!-- Title: G Pages: 1 -->
<svg width="916pt" height="630pt"
 viewBox="0.00 0.00 915.79 630.49" xmlns="http://www.w3.org/2000/svg" xmlns:xlink="http://www.w3.org/1999/xlink">
<g id="graph0" class="graph" transform="scale(1 1) rotate(0) translate(4 626.492)">
<title>G</title>
<polygon fill="white" stroke="none" points="-4,4 -4,-626.492 911.792,-626.492 911.792,4 -4,4"/>
<!-- n0 -->
<g id="node1" class="node"><title>n0</title>
<polygon fill="lavenderblush" stroke="black" points="404.677,-275.916 404.677,-313.916 553.677,-313.916 553.677,-275.916 404.677,-275.916"/>
<text text-anchor="middle" x="479.177" y="-298.716" font-family="Times New Roman,serif" font-size="14.00">«HTML»</text>
<text text-anchor="middle" x="479.177" y="-283.716" font-family="Times New Roman,serif" font-size="14.00">website_example/a.html</text>
</g>
<!-- n2 -->
<g id="node2" class="node"><title>n2</title>
<polygon fill="lavenderblush" stroke="black" points="590.321,-188.545 590.321,-226.545 740.321,-226.545 740.321,-188.545 590.321,-188.545"/>
<text text-anchor="middle" x="665.321" y="-211.345" font-family="Times New Roman,serif" font-size="14.00">«HTML»</text>
<text text-anchor="middle" x="665.321" y="-196.345" font-family="Times New Roman,serif" font-size="14.00">website_example/c.html</text>
</g>
<!-- n0&#45;&gt;n2 -->
<g id="edge2" class="edge"><title>n0&#45;&gt;n2</title>
<path fill="none" stroke="black" d="M529.672,-270.684C580.021,-246.538 601.717,-236.232 622.608,-226.693"/>
<polygon fill="black" stroke="black" points="529.668,-270.685 525.988,-276.887 518.849,-275.876 522.528,-269.674 529.668,-270.685"/>
</g>
<!-- n1 -->
<g id="node3" class="node"><title>n1</title>
<polygon fill="lavenderblush" stroke="black" points="592.776,-376.753 592.776,-414.753 743.776,-414.753 743.776,-376.753 592.776,-376.753"/>
<text text-anchor="middle" x="668.276" y="-399.553" font-family="Times New Roman,serif" font-size="14.00">«HTML»</text>
<text text-anchor="middle" x="668.276" y="-384.553" font-family="Times New Roman,serif" font-size="14.00">website_example/b.html</text>
</g>
<!-- n0&#45;&gt;n1 -->
<g id="edge3" class="edge"><title>n0&#45;&gt;n1</title>
<path fill="none" stroke="black" d="M531.918,-319.105C596.602,-348.923 615.64,-358.763 641.498,-376.603"/>
<polygon fill="black" stroke="black" points="531.583,-318.951 524.46,-320.077 520.682,-313.935 527.804,-312.809 531.583,-318.951"/>
</g>
<!-- n3 -->
<g id="node5" class="node"><title>n3</title>
<polygon fill="aliceblue" stroke="black" points="175.836,-308.992 175.836,-346.992 329.836,-346.992 329.836,-308.992 175.836,-308.992"/>
<text text-anchor="middle" x="252.836" y="-331.792" font-family="Times New Roman,serif" font-size="14.00">«JavaScript»</text>
<text text-anchor="middle" x="252.836" y="-316.792" font-family="Times New Roman,serif" font-size="14.00">website_example/js/s1.js</text>
</g>
<!-- n0&#45;&gt;n3 -->
<g id="edge4" class="edge"><title>n0&#45;&gt;n3</title>
<path fill="none" stroke="black" d="M392.469,-304.11C364.749,-307.152 345.584,-309.468 329.874,-311.804"/>
<polygon fill="black" stroke="black" points="392.497,-304.107 398.03,-299.482 404.427,-302.81 398.894,-307.435 392.497,-304.107"/>
</g>
<!-- n7 -->
<g id="node8" class="node"><title>n7</title>
<polygon fill="palegreen" stroke="black" points="415.046,-85.385 415.046,-146.385 582.046,-146.385 582.046,-85.385 415.046,-85.385"/>
<text text-anchor="middle" x="498.546" y="-131.185" font-family="Times New Roman,serif" font-size="14.00">«CSS»</text>
<text text-anchor="middle" x="498.546" y="-116.185" font-family="Times New Roman,serif" font-size="14.00">website_example/css/a.css</text>
<polyline fill="none" stroke="black" points="415.046,-108.385 582.046,-108.385 "/>
<text text-anchor="start" x="423.046" y="-93.185" font-family="Times New Roman,serif" font-size="14.00">p</text>
</g>
<!-- n0&#45;&gt;n7 -->
<g id="edge1" class="edge"><title>n0&#45;&gt;n7</title>
<path fill="none" stroke="black" d="M484.495,-263.511C496.322,-193.388 499.133,-173.599 499.169,-146.454"/>
<polygon fill="black" stroke="black" points="484.434,-263.868 487.378,-270.451 482.434,-275.7 479.49,-269.118 484.434,-263.868"/>
</g>
<!-- n5 -->
<g id="node4" class="node"><title>n5</title>
<polygon fill="aliceblue" stroke="black" points="697.705,-0.5 697.705,-91.5 875.705,-91.5 875.705,-0.5 697.705,-0.5"/>
<text text-anchor="middle" x="786.705" y="-76.3" font-family="Times New Roman,serif" font-size="14.00">«JavaScript»</text>
<text text-anchor="middle" x="786.705" y="-61.3" font-family="Times New Roman,serif" font-size="14.00">website_example/js/sClass.js</text>
<polyline fill="none" stroke="black" points="697.705,-53.5 875.705,-53.5 "/>
<text text-anchor="start" x="705.705" y="-38.3" font-family="Times New Roman,serif" font-size="14.00">+c : variable = undefined</text>
<text text-anchor="start" x="705.705" y="-23.3" font-family="Times New Roman,serif" font-size="14.00">+d : variable = undefined</text>
<text text-anchor="start" x="705.705" y="-8.3" font-family="Times New Roman,serif" font-size="14.00">+fooClass : object</text>
</g>
<!-- n2&#45;&gt;n5 -->
<g id="edge10" class="edge"><title>n2&#45;&gt;n5</title>
<path fill="none" stroke="black" d="M690.88,-179.431C733.48,-132.463 750.664,-112.55 763.379,-91.8125"/>
<polygon fill="black" stroke="black" points="690.692,-179.638 689.62,-186.769 682.625,-188.522 683.697,-181.391 690.692,-179.638"/>
</g>
<!-- n2&#45;&gt;n7 -->
<g id="edge8" class="edge"><title>n2&#45;&gt;n7</title>
<path fill="none" stroke="black" d="M642.522,-178.879C620.749,-152.419 606.939,-140.338 582.064,-132.177"/>
<polygon fill="black" stroke="black" points="642.692,-179.089 649.576,-181.239 650.239,-188.419 643.356,-186.27 642.692,-179.089"/>
</g>
<!-- n4 -->
<g id="node9" class="node"><title>n4</title>
<polygon fill="aliceblue" stroke="black" points="751.792,-254.44 751.792,-368.44 907.792,-368.44 907.792,-254.44 751.792,-254.44"/>
<text text-anchor="middle" x="829.792" y="-353.24" font-family="Times New Roman,serif" font-size="14.00">«JavaScript»</text>
<text text-anchor="middle" x="829.792" y="-338.24" font-family="Times New Roman,serif" font-size="14.00">website_example/js/s.js</text>
<polyline fill="none" stroke="black" points="751.792,-330.44 907.792,-330.44 "/>
<text text-anchor="start" x="759.792" y="-315.24" font-family="Times New Roman,serif" font-size="14.00">+a : variable = undefined</text>
<text text-anchor="start" x="759.792" y="-300.24" font-family="Times New Roman,serif" font-size="14.00">+b : variable = undefined</text>
<polyline fill="none" stroke="black" points="751.792,-292.44 907.792,-292.44 "/>
<text text-anchor="start" x="759.792" y="-277.24" font-family="Times New Roman,serif" font-size="14.00">&#45;barFunc()</text>
<text text-anchor="start" x="759.792" y="-262.24" font-family="Times New Roman,serif" font-size="14.00">&#45;barFuncB()</text>
</g>
<!-- n2&#45;&gt;n4 -->
<g id="edge9" class="edge"><title>n2&#45;&gt;n4</title>
<path fill="none" stroke="black" d="M727.052,-231.083C749.097,-239.886 764.107,-246.78 775.94,-254.204"/>
<polygon fill="black" stroke="black" points="726.815,-230.99 719.767,-232.517 715.647,-226.598 722.695,-225.072 726.815,-230.99"/>
</g>
<!-- n1&#45;&gt;n2 -->
<g id="edge7" class="edge"><title>n1&#45;&gt;n2</title>
<path fill="none" stroke="black" d="M679.767,-364.942C701.805,-304.213 700.192,-290.868 673.386,-226.687"/>
<polygon fill="black" stroke="black" points="679.689,-365.153 681.369,-372.166 675.542,-376.414 673.862,-369.401 679.689,-365.153"/>
</g>
<!-- n6 -->
<g id="node7" class="node"><title>n6</title>
<polygon fill="palegreen" stroke="black" points="649.383,-530.992 649.383,-621.992 836.383,-621.992 836.383,-530.992 649.383,-530.992"/>
<text text-anchor="middle" x="742.883" y="-606.792" font-family="Times New Roman,serif" font-size="14.00">«CSS»</text>
<text text-anchor="middle" x="742.883" y="-591.792" font-family="Times New Roman,serif" font-size="14.00">website_example/css/main.css</text>
<polyline fill="none" stroke="black" points="649.383,-583.992 836.383,-583.992 "/>
<text text-anchor="start" x="657.383" y="-568.792" font-family="Times New Roman,serif" font-size="14.00">bar</text>
<text text-anchor="start" x="657.383" y="-553.792" font-family="Times New Roman,serif" font-size="14.00">body</text>
<text text-anchor="start" x="657.383" y="-538.792" font-family="Times New Roman,serif" font-size="14.00">foo</text>
</g>
<!-- n1&#45;&gt;n6 -->
<g id="edge5" class="edge"><title>n1&#45;&gt;n6</title>
<path fill="none" stroke="black" d="M686.461,-425.325C721.5,-482.544 732.809,-503.431 737.953,-530.541"/>
<polygon fill="black" stroke="black" points="686.415,-425.25 679.867,-422.228 680.138,-415.022 686.686,-418.044 686.415,-425.25"/>
</g>
<!-- n1&#45;&gt;n4 -->
<g id="edge6" class="edge"><title>n1&#45;&gt;n4</title>
<path fill="none" stroke="black" d="M739.406,-372.625C743.835,-371.068 747.934,-369.577 751.751,-368.126"/>
<polygon fill="black" stroke="black" points="739.04,-372.75 734.662,-378.481 727.689,-376.644 732.067,-370.913 739.04,-372.75"/>
</g>
<!-- n8 -->
<g id="node6" class="node"><title>n8</title>
<polygon fill="azure" stroke="black" points="2.84217e-014,-279.285 2.84217e-014,-317.285 137,-317.285 137,-279.285 2.84217e-014,-279.285"/>
<text text-anchor="middle" x="68.5" y="-302.085" font-family="Times New Roman,serif" font-size="14.00">«JavaScript Require»</text>
<text text-anchor="middle" x="68.5" y="-287.085" font-family="Times New Roman,serif" font-size="14.00">data/data.json</text>
</g>
<!-- n3&#45;&gt;n8 -->
<g id="edge11" class="edge"><title>n3&#45;&gt;n8</title>
<path fill="none" stroke="red" stroke-dasharray="5,2" d="M175.774,-319.148C164.664,-317.808 155.346,-316.621 147.228,-315.491"/>
<polygon fill="red" stroke="red" points="147.598,-312.008 137.198,-314.031 146.59,-318.935 147.598,-312.008"/>
<text text-anchor="middle" x="126.972" y="-320.536" font-family="Times New Roman,serif" font-size="14.00" fill="red">«Require»</text>
</g>
</g>
</svg>
