<?xml version="1.0" encoding="UTF-8" standalone="no"?>
<!DOCTYPE svg PUBLIC "-//W3C//DTD SVG 1.1//EN"
 "http://www.w3.org/Graphics/SVG/1.1/DTD/svg11.dtd">
<!-- Generated by graphviz version 2.38.0 (20140413.2041)
 -->
<!-- Title: G Pages: 1 -->
<svg width="789pt" height="184pt"
 viewBox="0.00 0.00 789.00 184.00" xmlns="http://www.w3.org/2000/svg" xmlns:xlink="http://www.w3.org/1999/xlink">
<g id="graph0" class="graph" transform="scale(1 1) rotate(0) translate(4 180)">
<title>G</title>
<polygon fill="white" stroke="none" points="-4,4 -4,-180 785,-180 785,4 -4,4"/>
<!-- website_example/bar.html -->
<g id="node1" class="node"><title>website_example/bar.html</title>
<polygon fill="lavenderblush" stroke="black" points="159,-139.5 159,-175.5 293,-175.5 293,-139.5 159,-139.5"/>
<text text-anchor="middle" x="226" y="-160.9" font-family="Times New Roman,serif" font-size="12.00">«HTML»</text>
<text text-anchor="middle" x="226" y="-147.9" font-family="Times New Roman,serif" font-size="12.00">website_example/bar.html</text>
</g>
<!-- website_example/css/bar.css -->
<g id="node4" class="node"><title>website_example/css/bar.css</title>
<polygon fill="palegreen" stroke="black" points="152.5,-33.5 152.5,-69.5 299.5,-69.5 299.5,-33.5 152.5,-33.5"/>
<text text-anchor="middle" x="226" y="-48.4" font-family="Times New Roman,serif" font-size="12.00">website_example/css/bar.css</text>
</g>
<!-- website_example/bar.html&#45;&gt;website_example/css/bar.css -->
<g id="edge7" class="edge"><title>website_example/bar.html&#45;&gt;website_example/css/bar.css</title>
<path fill="none" stroke="black" d="M226,-139.327C226,-123.143 226,-98.6307 226,-79.7733"/>
<polygon fill="black" stroke="black" points="229.5,-79.699 226,-69.699 222.5,-79.699 229.5,-79.699"/>
</g>
<!-- website_example/css/main.css -->
<g id="node5" class="node"><title>website_example/css/main.css</title>
<polygon fill="palegreen" stroke="black" points="317.5,-33.5 317.5,-69.5 470.5,-69.5 470.5,-33.5 317.5,-33.5"/>
<text text-anchor="middle" x="394" y="-48.4" font-family="Times New Roman,serif" font-size="12.00">website_example/css/main.css</text>
</g>
<!-- website_example/bar.html&#45;&gt;website_example/css/main.css -->
<g id="edge4" class="edge"><title>website_example/bar.html&#45;&gt;website_example/css/main.css</title>
<path fill="none" stroke="black" d="M253.742,-139.327C282.158,-121.736 326.47,-94.3043 357.668,-74.991"/>
<polygon fill="black" stroke="black" points="359.836,-77.7657 366.496,-69.5261 356.151,-71.8138 359.836,-77.7657"/>
</g>
<!-- website_example/js/bar.js -->
<g id="node6" class="node"><title>website_example/js/bar.js</title>
<polygon fill="aliceblue" stroke="black" points="0,-0.5 0,-102.5 134,-102.5 134,-0.5 0,-0.5"/>
<text text-anchor="middle" x="67" y="-88.9" font-family="Times New Roman,serif" font-size="12.00">«JavaScript»</text>
<text text-anchor="middle" x="67" y="-75.9" font-family="Times New Roman,serif" font-size="12.00">website_example/js/bar.js</text>
<polyline fill="none" stroke="black" points="0,-68.5 134,-68.5 "/>
<text text-anchor="start" x="8" y="-54.9" font-family="Times New Roman,serif" font-size="12.00">a</text>
<text text-anchor="start" x="8" y="-41.9" font-family="Times New Roman,serif" font-size="12.00">b</text>
<polyline fill="none" stroke="black" points="0,-34.5 134,-34.5 "/>
<text text-anchor="start" x="8" y="-20.9" font-family="Times New Roman,serif" font-size="12.00">barFunc()</text>
<text text-anchor="start" x="8" y="-7.9" font-family="Times New Roman,serif" font-size="12.00">barFuncB()</text>
</g>
<!-- website_example/bar.html&#45;&gt;website_example/js/bar.js -->
<g id="edge2" class="edge"><title>website_example/bar.html&#45;&gt;website_example/js/bar.js</title>
<path fill="none" stroke="black" d="M199.399,-139.487C183.085,-129.02 161.792,-115.299 143,-103 142.909,-102.94 142.818,-102.881 142.726,-102.821"/>
<polygon fill="black" stroke="black" points="144.384,-99.7223 134.103,-97.1614 140.543,-105.574 144.384,-99.7223"/>
</g>
<!-- website_example/foo.html -->
<g id="node2" class="node"><title>website_example/foo.html</title>
<polygon fill="lavenderblush" stroke="black" points="329,-139.5 329,-175.5 463,-175.5 463,-139.5 329,-139.5"/>
<text text-anchor="middle" x="396" y="-160.9" font-family="Times New Roman,serif" font-size="12.00">«HTML»</text>
<text text-anchor="middle" x="396" y="-147.9" font-family="Times New Roman,serif" font-size="12.00">website_example/foo.html</text>
</g>
<!-- website_example/foo.html&#45;&gt;website_example/css/main.css -->
<g id="edge6" class="edge"><title>website_example/foo.html&#45;&gt;website_example/css/main.css</title>
<path fill="none" stroke="black" d="M395.67,-139.327C395.359,-123.143 394.887,-98.6307 394.524,-79.7733"/>
<polygon fill="black" stroke="black" points="398.022,-79.6298 394.331,-69.699 391.024,-79.7645 398.022,-79.6298"/>
</g>
<!-- website_example/js/foo.js -->
<g id="node7" class="node"><title>website_example/js/foo.js</title>
<polygon fill="aliceblue" stroke="black" points="489,-0.5 489,-102.5 623,-102.5 623,-0.5 489,-0.5"/>
<text text-anchor="middle" x="556" y="-88.9" font-family="Times New Roman,serif" font-size="12.00">«JavaScript»</text>
<text text-anchor="middle" x="556" y="-75.9" font-family="Times New Roman,serif" font-size="12.00">website_example/js/foo.js</text>
<polyline fill="none" stroke="black" points="489,-68.5 623,-68.5 "/>
<text text-anchor="start" x="497" y="-54.9" font-family="Times New Roman,serif" font-size="12.00">c</text>
<text text-anchor="start" x="497" y="-41.9" font-family="Times New Roman,serif" font-size="12.00">d</text>
<polyline fill="none" stroke="black" points="489,-34.5 623,-34.5 "/>
<text text-anchor="start" x="497" y="-20.9" font-family="Times New Roman,serif" font-size="12.00">fooFuncA()</text>
<text text-anchor="start" x="497" y="-7.9" font-family="Times New Roman,serif" font-size="12.00">fooFuncB()</text>
</g>
<!-- website_example/foo.html&#45;&gt;website_example/js/foo.js -->
<g id="edge5" class="edge"><title>website_example/foo.html&#45;&gt;website_example/js/foo.js</title>
<path fill="none" stroke="black" d="M422.574,-139.447C438.879,-128.965 460.172,-115.242 479,-103 479.402,-102.739 479.805,-102.476 480.21,-102.213"/>
<polygon fill="black" stroke="black" points="482.36,-104.99 488.829,-96.5986 478.539,-99.1243 482.36,-104.99"/>
</g>
<!-- website_example/index.html -->
<g id="node3" class="node"><title>website_example/index.html</title>
<polygon fill="lavenderblush" stroke="black" points="484.5,-139.5 484.5,-175.5 627.5,-175.5 627.5,-139.5 484.5,-139.5"/>
<text text-anchor="middle" x="556" y="-160.9" font-family="Times New Roman,serif" font-size="12.00">«HTML»</text>
<text text-anchor="middle" x="556" y="-147.9" font-family="Times New Roman,serif" font-size="12.00">website_example/index.html</text>
</g>
<!-- website_example/index.html&#45;&gt;website_example/css/main.css -->
<g id="edge8" class="edge"><title>website_example/index.html&#45;&gt;website_example/css/main.css</title>
<path fill="none" stroke="black" d="M529.249,-139.327C501.848,-121.736 459.118,-94.3043 429.034,-74.991"/>
<polygon fill="black" stroke="black" points="430.827,-71.9832 420.521,-69.5261 427.046,-77.8738 430.827,-71.9832"/>
</g>
<!-- website_example/index.html&#45;&gt;website_example/js/foo.js -->
<g id="edge1" class="edge"><title>website_example/index.html&#45;&gt;website_example/js/foo.js</title>
<path fill="none" stroke="black" d="M556,-139.327C556,-131.876 556,-122.66 556,-113.043"/>
<polygon fill="black" stroke="black" points="559.5,-112.934 556,-102.934 552.5,-112.934 559.5,-112.934"/>
</g>
<!-- website_example/js/foo2.js -->
<g id="node8" class="node"><title>website_example/js/foo2.js</title>
<polygon fill="aliceblue" stroke="black" points="641,-13 641,-90 781,-90 781,-13 641,-13"/>
<text text-anchor="middle" x="711" y="-76.4" font-family="Times New Roman,serif" font-size="12.00">«JavaScript»</text>
<text text-anchor="middle" x="711" y="-63.4" font-family="Times New Roman,serif" font-size="12.00">website_example/js/foo2.js</text>
<polyline fill="none" stroke="black" points="641,-56 781,-56 "/>
<text text-anchor="start" x="649" y="-42.4" font-family="Times New Roman,serif" font-size="12.00">foo</text>
<polyline fill="none" stroke="black" points="641,-35 781,-35 "/>
</g>
<!-- website_example/index.html&#45;&gt;website_example/js/foo2.js -->
<g id="edge3" class="edge"><title>website_example/index.html&#45;&gt;website_example/js/foo2.js</title>
<path fill="none" stroke="black" d="M581.595,-139.327C599.285,-127.457 623.653,-111.107 646.475,-95.7941"/>
<polygon fill="black" stroke="black" points="648.444,-98.6877 654.798,-90.2095 644.544,-92.8749 648.444,-98.6877"/>
</g>
</g>
</svg>
