<?xml version="1.0" encoding="UTF-8" standalone="no"?>
<!DOCTYPE svg PUBLIC "-//W3C//DTD SVG 1.1//EN"
 "http://www.w3.org/Graphics/SVG/1.1/DTD/svg11.dtd">
<!-- Generated by graphviz version 2.38.0 (20140413.2041)
 -->
<!-- Title: G Pages: 1 -->
<svg width="538pt" height="416pt"
 viewBox="0.00 0.00 538.00 416.00" xmlns="http://www.w3.org/2000/svg" xmlns:xlink="http://www.w3.org/1999/xlink">
<g id="graph0" class="graph" transform="scale(1 1) rotate(0) translate(4 412)">
<title>G</title>
<polygon fill="white" stroke="none" points="-4,4 -4,-412 534,-412 534,4 -4,4"/>
<!-- website_example/a.html -->
<g id="node1" class="node"><title>website_example/a.html</title>
<polygon fill="lavenderblush" stroke="black" points="212,-371.5 212,-407.5 337,-407.5 337,-371.5 212,-371.5"/>
<text text-anchor="middle" x="274.5" y="-392.9" font-family="Times New Roman,serif" font-size="12.00">«HTML»</text>
<text text-anchor="middle" x="274.5" y="-379.9" font-family="Times New Roman,serif" font-size="12.00">website_example/a.html</text>
</g>
<!-- website_example/b.html -->
<g id="node2" class="node"><title>website_example/b.html</title>
<polygon fill="lavenderblush" stroke="black" points="258,-278 258,-314 383,-314 383,-278 258,-278"/>
<text text-anchor="middle" x="320.5" y="-299.4" font-family="Times New Roman,serif" font-size="12.00">«HTML»</text>
<text text-anchor="middle" x="320.5" y="-286.4" font-family="Times New Roman,serif" font-size="12.00">website_example/b.html</text>
</g>
<!-- website_example/a.html&#45;&gt;website_example/b.html -->
<g id="edge7" class="edge"><title>website_example/a.html&#45;&gt;website_example/b.html</title>
<path fill="none" stroke="black" d="M283.152,-371.29C289.963,-357.742 299.568,-338.637 307.332,-323.193"/>
<polygon fill="black" stroke="black" points="310.522,-324.64 311.887,-314.133 304.268,-321.496 310.522,-324.64"/>
</g>
<!-- website_example/c.html -->
<g id="node3" class="node"><title>website_example/c.html</title>
<polygon fill="lavenderblush" stroke="black" points="167,-162 167,-198 292,-198 292,-162 167,-162"/>
<text text-anchor="middle" x="229.5" y="-183.4" font-family="Times New Roman,serif" font-size="12.00">«HTML»</text>
<text text-anchor="middle" x="229.5" y="-170.4" font-family="Times New Roman,serif" font-size="12.00">website_example/c.html</text>
</g>
<!-- website_example/a.html&#45;&gt;website_example/c.html -->
<g id="edge2" class="edge"><title>website_example/a.html&#45;&gt;website_example/c.html</title>
<path fill="none" stroke="black" d="M264.312,-371.257C258.749,-361.051 252.249,-347.676 248.5,-335 235.72,-291.788 231.529,-239.295 230.159,-208.1"/>
<polygon fill="black" stroke="black" points="233.653,-207.867 229.783,-198.004 226.658,-208.127 233.653,-207.867"/>
</g>
<!-- website_example/css/a.css -->
<g id="node4" class="node"><title>website_example/css/a.css</title>
<polygon fill="palegreen" stroke="black" points="0,-24 0,-79 137,-79 137,-24 0,-24"/>
<text text-anchor="middle" x="68.5" y="-65.4" font-family="Times New Roman,serif" font-size="12.00">«CSS»</text>
<text text-anchor="middle" x="68.5" y="-52.4" font-family="Times New Roman,serif" font-size="12.00">website_example/css/a.css</text>
<polyline fill="none" stroke="black" points="0,-45 137,-45 "/>
<text text-anchor="start" x="8" y="-31.4" font-family="Times New Roman,serif" font-size="12.00">p</text>
</g>
<!-- website_example/a.html&#45;&gt;website_example/css/a.css -->
<g id="edge1" class="edge"><title>website_example/a.html&#45;&gt;website_example/css/a.css</title>
<path fill="none" stroke="black" d="M259.291,-371.086C250.555,-360.823 239.555,-347.448 230.5,-335 169.821,-251.587 113.35,-143.583 85.9082,-88.4048"/>
<polygon fill="black" stroke="black" points="89.0123,-86.786 81.4419,-79.3739 82.7377,-89.8892 89.0123,-86.786"/>
</g>
<!-- website_example/js/s1.js -->
<g id="node7" class="node"><title>website_example/js/s1.js</title>
<polygon fill="aliceblue" stroke="black" points="401,-257.5 401,-334.5 530,-334.5 530,-257.5 401,-257.5"/>
<text text-anchor="middle" x="465.5" y="-320.9" font-family="Times New Roman,serif" font-size="12.00">«JavaScript»</text>
<text text-anchor="middle" x="465.5" y="-307.9" font-family="Times New Roman,serif" font-size="12.00">website_example/js/s1.js</text>
<polyline fill="none" stroke="black" points="401,-300.5 530,-300.5 "/>
<text text-anchor="start" x="409" y="-286.9" font-family="Times New Roman,serif" font-size="12.00">foo</text>
<polyline fill="none" stroke="black" points="401,-279.5 530,-279.5 "/>
</g>
<!-- website_example/a.html&#45;&gt;website_example/js/s1.js -->
<g id="edge4" class="edge"><title>website_example/a.html&#45;&gt;website_example/js/s1.js</title>
<path fill="none" stroke="black" d="M313.544,-371.436C334.573,-362.102 361.114,-350.092 391.579,-335.389"/>
<polygon fill="black" stroke="black" points="393.245,-338.471 400.714,-330.956 390.189,-332.173 393.245,-338.471"/>
</g>
<!-- website_example/b.html&#45;&gt;website_example/c.html -->
<g id="edge6" class="edge"><title>website_example/b.html&#45;&gt;website_example/c.html</title>
<path fill="none" stroke="black" d="M306.679,-277.686C291.425,-258.576 266.739,-227.651 249.402,-205.933"/>
<polygon fill="black" stroke="black" points="252.127,-203.735 243.153,-198.104 246.656,-208.102 252.127,-203.735"/>
</g>
<!-- website_example/css/main.css -->
<g id="node5" class="node"><title>website_example/css/main.css</title>
<polygon fill="palegreen" stroke="black" points="349,-139.5 349,-220.5 502,-220.5 502,-139.5 349,-139.5"/>
<text text-anchor="middle" x="425.5" y="-206.9" font-family="Times New Roman,serif" font-size="12.00">«CSS»</text>
<text text-anchor="middle" x="425.5" y="-193.9" font-family="Times New Roman,serif" font-size="12.00">website_example/css/main.css</text>
<polyline fill="none" stroke="black" points="349,-186.5 502,-186.5 "/>
<text text-anchor="start" x="357" y="-172.9" font-family="Times New Roman,serif" font-size="12.00">body</text>
<text text-anchor="start" x="357" y="-159.9" font-family="Times New Roman,serif" font-size="12.00">foo</text>
<text text-anchor="start" x="357" y="-146.9" font-family="Times New Roman,serif" font-size="12.00">bar</text>
</g>
<!-- website_example/b.html&#45;&gt;website_example/css/main.css -->
<g id="edge10" class="edge"><title>website_example/b.html&#45;&gt;website_example/css/main.css</title>
<path fill="none" stroke="black" d="M336.447,-277.686C348.595,-264.496 365.927,-245.679 382.077,-228.145"/>
<polygon fill="black" stroke="black" points="384.707,-230.456 388.907,-220.729 379.558,-225.713 384.707,-230.456"/>
</g>
<!-- website_example/js/s.js -->
<g id="node6" class="node"><title>website_example/js/s.js</title>
<polygon fill="aliceblue" stroke="black" points="322,-0.5 322,-102.5 445,-102.5 445,-0.5 322,-0.5"/>
<text text-anchor="middle" x="383.5" y="-88.9" font-family="Times New Roman,serif" font-size="12.00">«JavaScript»</text>
<text text-anchor="middle" x="383.5" y="-75.9" font-family="Times New Roman,serif" font-size="12.00">website_example/js/s.js</text>
<polyline fill="none" stroke="black" points="322,-68.5 445,-68.5 "/>
<text text-anchor="start" x="330" y="-54.9" font-family="Times New Roman,serif" font-size="12.00">a</text>
<text text-anchor="start" x="330" y="-41.9" font-family="Times New Roman,serif" font-size="12.00">b</text>
<polyline fill="none" stroke="black" points="322,-34.5 445,-34.5 "/>
<text text-anchor="start" x="330" y="-20.9" font-family="Times New Roman,serif" font-size="12.00">barFunc()</text>
<text text-anchor="start" x="330" y="-7.9" font-family="Times New Roman,serif" font-size="12.00">barFuncB()</text>
</g>
<!-- website_example/b.html&#45;&gt;website_example/js/s.js -->
<g id="edge5" class="edge"><title>website_example/b.html&#45;&gt;website_example/js/s.js</title>
<path fill="none" stroke="black" d="M320.655,-277.747C321.343,-248.547 324.624,-187.803 339.5,-139 342.235,-130.029 345.86,-120.87 349.86,-112.028"/>
<polygon fill="black" stroke="black" points="353.042,-113.488 354.142,-102.95 346.711,-110.501 353.042,-113.488"/>
</g>
<!-- website_example/c.html&#45;&gt;website_example/css/a.css -->
<g id="edge8" class="edge"><title>website_example/c.html&#45;&gt;website_example/css/a.css</title>
<path fill="none" stroke="black" d="M207.787,-161.94C182.968,-142.439 141.755,-110.058 110.583,-85.5653"/>
<polygon fill="black" stroke="black" points="112.511,-82.6291 102.486,-79.203 108.186,-88.1334 112.511,-82.6291"/>
</g>
<!-- website_example/c.html&#45;&gt;website_example/js/s.js -->
<g id="edge3" class="edge"><title>website_example/c.html&#45;&gt;website_example/js/s.js</title>
<path fill="none" stroke="black" d="M250.269,-161.94C266.939,-148.246 291.341,-128.202 314.72,-108.998"/>
<polygon fill="black" stroke="black" points="317.091,-111.579 322.597,-102.527 312.648,-106.17 317.091,-111.579"/>
</g>
<!-- website_example/js/sClass.js -->
<g id="node8" class="node"><title>website_example/js/sClass.js</title>
<polygon fill="aliceblue" stroke="black" points="155.5,-0.5 155.5,-102.5 303.5,-102.5 303.5,-0.5 155.5,-0.5"/>
<text text-anchor="middle" x="229.5" y="-88.9" font-family="Times New Roman,serif" font-size="12.00">«JavaScript»</text>
<text text-anchor="middle" x="229.5" y="-75.9" font-family="Times New Roman,serif" font-size="12.00">website_example/js/sClass.js</text>
<polyline fill="none" stroke="black" points="155.5,-68.5 303.5,-68.5 "/>
<text text-anchor="start" x="163.5" y="-54.9" font-family="Times New Roman,serif" font-size="12.00">c</text>
<text text-anchor="start" x="163.5" y="-41.9" font-family="Times New Roman,serif" font-size="12.00">d</text>
<polyline fill="none" stroke="black" points="155.5,-34.5 303.5,-34.5 "/>
<text text-anchor="start" x="163.5" y="-20.9" font-family="Times New Roman,serif" font-size="12.00">fooFuncA()</text>
<text text-anchor="start" x="163.5" y="-7.9" font-family="Times New Roman,serif" font-size="12.00">fooFuncB()</text>
</g>
<!-- website_example/c.html&#45;&gt;website_example/js/sClass.js -->
<g id="edge9" class="edge"><title>website_example/c.html&#45;&gt;website_example/js/sClass.js</title>
<path fill="none" stroke="black" d="M229.5,-161.94C229.5,-149.139 229.5,-130.789 229.5,-112.764"/>
<polygon fill="black" stroke="black" points="233,-112.527 229.5,-102.527 226,-112.527 233,-112.527"/>
</g>
</g>
</svg>
