<?xml version="1.0" encoding="UTF-8" standalone="no"?>
<!DOCTYPE svg PUBLIC "-//W3C//DTD SVG 1.1//EN"
 "http://www.w3.org/Graphics/SVG/1.1/DTD/svg11.dtd">
<!-- Generated by graphviz version 2.38.0 (20140413.2041)
 -->
<!-- Title: G Pages: 1 -->
<svg width="864pt" height="583pt"
 viewBox="0.00 0.00 863.57 583.37" xmlns="http://www.w3.org/2000/svg" xmlns:xlink="http://www.w3.org/1999/xlink">
<g id="graph0" class="graph" transform="scale(1 1) rotate(0) translate(4 579.365)">
<title>G</title>
<polygon fill="white" stroke="none" points="-4,4 -4,-579.365 859.574,-579.365 859.574,4 -4,4"/>
<!-- n0 -->
<g id="node1" class="node"><title>n0</title>
<polygon fill="lavenderblush" stroke="black" points="338.654,-269.467 338.654,-307.467 487.654,-307.467 487.654,-269.467 338.654,-269.467"/>
<text text-anchor="middle" x="413.154" y="-292.267" font-family="Times New Roman,serif" font-size="14.00">«HTML»</text>
<text text-anchor="middle" x="413.154" y="-277.267" font-family="Times New Roman,serif" font-size="14.00">website_example/a.html</text>
</g>
<!-- n4 -->
<g id="node2" class="node"><title>n4</title>
<polygon fill="palegreen" stroke="black" points="320.672,-427.582 320.672,-488.582 487.672,-488.582 487.672,-427.582 320.672,-427.582"/>
<text text-anchor="middle" x="404.172" y="-473.382" font-family="Times New Roman,serif" font-size="14.00">«CSS»</text>
<text text-anchor="middle" x="404.172" y="-458.382" font-family="Times New Roman,serif" font-size="14.00">website_example/css/a.css</text>
<polyline fill="none" stroke="black" points="320.672,-450.582 487.672,-450.582 "/>
<text text-anchor="start" x="328.672" y="-435.382" font-family="Times New Roman,serif" font-size="14.00">p</text>
</g>
<!-- n0&#45;&gt;n4 -->
<g id="edge1" class="edge"><title>n0&#45;&gt;n4</title>
<path fill="none" stroke="black" d="M410.006,-319.746C403.596,-383.808 402.035,-403.245 402.703,-427.551"/>
<polygon fill="black" stroke="black" points="410.016,-319.654 406.635,-313.285 411.214,-307.714 414.595,-314.084 410.016,-319.654"/>
</g>
<!-- n2 -->
<g id="node4" class="node"><title>n2</title>
<polygon fill="lavenderblush" stroke="black" points="167.124,-359.726 167.124,-397.726 317.124,-397.726 317.124,-359.726 167.124,-359.726"/>
<text text-anchor="middle" x="242.124" y="-382.526" font-family="Times New Roman,serif" font-size="14.00">«HTML»</text>
<text text-anchor="middle" x="242.124" y="-367.526" font-family="Times New Roman,serif" font-size="14.00">website_example/c.html</text>
</g>
<!-- n0&#45;&gt;n2 -->
<g id="edge3" class="edge"><title>n0&#45;&gt;n2</title>
<path fill="none" stroke="black" d="M364.946,-312.948C315.06,-338.315 295.916,-348.256 275.558,-359.632"/>
<polygon fill="black" stroke="black" points="365.006,-312.917 368.543,-306.633 375.704,-307.48 372.168,-313.765 365.006,-312.917"/>
</g>
<!-- n5 -->
<g id="node5" class="node"><title>n5</title>
<polygon fill="aliceblue" stroke="black" points="545.294,-229.372 545.294,-267.372 699.294,-267.372 699.294,-229.372 545.294,-229.372"/>
<text text-anchor="middle" x="622.294" y="-252.172" font-family="Times New Roman,serif" font-size="14.00">«JavaScript»</text>
<text text-anchor="middle" x="622.294" y="-237.172" font-family="Times New Roman,serif" font-size="14.00">website_example/js/s1.js</text>
</g>
<!-- n0&#45;&gt;n5 -->
<g id="edge4" class="edge"><title>n0&#45;&gt;n5</title>
<path fill="none" stroke="black" d="M499.635,-271.356C518.709,-267.596 533.145,-264.772 545.267,-262.439"/>
<polygon fill="black" stroke="black" points="499.624,-271.358 494.512,-276.444 487.851,-273.681 492.963,-268.595 499.624,-271.358"/>
</g>
<!-- n1 -->
<g id="node9" class="node"><title>n1</title>
<polygon fill="lavenderblush" stroke="black" points="154.469,-186.124 154.469,-224.124 305.469,-224.124 305.469,-186.124 154.469,-186.124"/>
<text text-anchor="middle" x="229.969" y="-208.924" font-family="Times New Roman,serif" font-size="14.00">«HTML»</text>
<text text-anchor="middle" x="229.969" y="-193.924" font-family="Times New Roman,serif" font-size="14.00">website_example/b.html</text>
</g>
<!-- n0&#45;&gt;n1 -->
<g id="edge2" class="edge"><title>n0&#45;&gt;n1</title>
<path fill="none" stroke="black" d="M358.067,-264.509C309.375,-243.291 288.909,-234.16 268.5,-224.3"/>
<polygon fill="black" stroke="black" points="358.251,-264.589 365.349,-263.317 369.253,-269.38 362.155,-270.652 358.251,-264.589"/>
</g>
<!-- n7 -->
<g id="node3" class="node"><title>n7</title>
<polygon fill="aliceblue" stroke="black" points="46.8945,-483.865 46.8945,-574.865 224.895,-574.865 224.895,-483.865 46.8945,-483.865"/>
<text text-anchor="middle" x="135.895" y="-559.665" font-family="Times New Roman,serif" font-size="14.00">«JavaScript»</text>
<text text-anchor="middle" x="135.895" y="-544.665" font-family="Times New Roman,serif" font-size="14.00">website_example/js/sClass.js</text>
<polyline fill="none" stroke="black" points="46.8945,-536.865 224.895,-536.865 "/>
<text text-anchor="start" x="54.8945" y="-521.665" font-family="Times New Roman,serif" font-size="14.00">+c : variable = undefined</text>
<text text-anchor="start" x="54.8945" y="-506.665" font-family="Times New Roman,serif" font-size="14.00">+d : variable = undefined</text>
<text text-anchor="start" x="54.8945" y="-491.665" font-family="Times New Roman,serif" font-size="14.00">+fooClass : object</text>
</g>
<!-- n2&#45;&gt;n4 -->
<g id="edge8" class="edge"><title>n2&#45;&gt;n4</title>
<path fill="none" stroke="black" d="M266.946,-407.046C286.324,-428.227 299.423,-438.594 320.445,-445.104"/>
<polygon fill="black" stroke="black" points="266.871,-406.962 259.888,-405.162 258.864,-398.024 265.847,-399.824 266.871,-406.962"/>
</g>
<!-- n2&#45;&gt;n7 -->
<g id="edge9" class="edge"><title>n2&#45;&gt;n7</title>
<path fill="none" stroke="black" d="M217.416,-407.334C182.971,-447.34 167.891,-465.784 157.244,-483.839"/>
<polygon fill="black" stroke="black" points="217.481,-407.259 218.37,-400.103 225.317,-398.171 224.428,-405.327 217.481,-407.259"/>
</g>
<!-- n6 -->
<g id="node7" class="node"><title>n6</title>
<polygon fill="aliceblue" stroke="black" points="-2.84217e-014,-233.133 -2.84217e-014,-347.133 156,-347.133 156,-233.133 -2.84217e-014,-233.133"/>
<text text-anchor="middle" x="78" y="-331.933" font-family="Times New Roman,serif" font-size="14.00">«JavaScript»</text>
<text text-anchor="middle" x="78" y="-316.933" font-family="Times New Roman,serif" font-size="14.00">website_example/js/s.js</text>
<polyline fill="none" stroke="black" points="-2.84217e-014,-309.133 156,-309.133 "/>
<text text-anchor="start" x="8" y="-293.933" font-family="Times New Roman,serif" font-size="14.00">+a : variable = undefined</text>
<text text-anchor="start" x="8" y="-278.933" font-family="Times New Roman,serif" font-size="14.00">+b : variable = undefined</text>
<polyline fill="none" stroke="black" points="-2.84217e-014,-271.133 156,-271.133 "/>
<text text-anchor="start" x="8" y="-255.933" font-family="Times New Roman,serif" font-size="14.00">&#45;barFunc()</text>
<text text-anchor="start" x="8" y="-240.933" font-family="Times New Roman,serif" font-size="14.00">&#45;barFuncB()</text>
</g>
<!-- n2&#45;&gt;n6 -->
<g id="edge10" class="edge"><title>n2&#45;&gt;n6</title>
<path fill="none" stroke="black" d="M171.436,-355.578C163.109,-352.635 155.91,-349.914 149.547,-347.259"/>
<polygon fill="black" stroke="black" points="171.713,-355.674 178.69,-353.85 183.056,-359.589 176.079,-361.412 171.713,-355.674"/>
</g>
<!-- n8 -->
<g id="node6" class="node"><title>n8</title>
<polygon fill="azure" stroke="black" points="718.574,-278.883 718.574,-316.883 855.574,-316.883 855.574,-278.883 718.574,-278.883"/>
<text text-anchor="middle" x="787.074" y="-301.683" font-family="Times New Roman,serif" font-size="14.00">«JavaScript Require»</text>
<text text-anchor="middle" x="787.074" y="-286.683" font-family="Times New Roman,serif" font-size="14.00">data/data.json</text>
</g>
<!-- n5&#45;&gt;n8 -->
<g id="edge11" class="edge"><title>n5&#45;&gt;n8</title>
<path fill="none" stroke="red" stroke-dasharray="5,2" d="M699.356,-263.959C717.593,-267.98 729.975,-271.284 740.65,-275.118"/>
<polygon fill="red" stroke="red" points="739.506,-278.428 750.094,-278.823 742.063,-271.912 739.506,-278.428"/>
<text text-anchor="middle" x="754.201" y="-258.916" font-family="Times New Roman,serif" font-size="14.00" fill="red">«Require»</text>
</g>
<!-- n3 -->
<g id="node8" class="node"><title>n3</title>
<polygon fill="palegreen" stroke="black" points="58.5565,-0.5 58.5565,-91.5 245.556,-91.5 245.556,-0.5 58.5565,-0.5"/>
<text text-anchor="middle" x="152.056" y="-76.3" font-family="Times New Roman,serif" font-size="14.00">«CSS»</text>
<text text-anchor="middle" x="152.056" y="-61.3" font-family="Times New Roman,serif" font-size="14.00">website_example/css/main.css</text>
<polyline fill="none" stroke="black" points="58.5565,-53.5 245.556,-53.5 "/>
<text text-anchor="start" x="66.5565" y="-38.3" font-family="Times New Roman,serif" font-size="14.00">bar</text>
<text text-anchor="start" x="66.5565" y="-23.3" font-family="Times New Roman,serif" font-size="14.00">body</text>
<text text-anchor="start" x="66.5565" y="-8.3" font-family="Times New Roman,serif" font-size="14.00">foo</text>
</g>
<!-- n1&#45;&gt;n2 -->
<g id="edge6" class="edge"><title>n1&#45;&gt;n2</title>
<path fill="none" stroke="black" d="M220.105,-235.689C203.659,-288.738 205.981,-301.81 232.987,-359.417"/>
<polygon fill="black" stroke="black" points="220.144,-235.567 218.144,-228.639 223.77,-224.128 225.77,-231.056 220.144,-235.567"/>
</g>
<!-- n1&#45;&gt;n6 -->
<g id="edge7" class="edge"><title>n1&#45;&gt;n6</title>
<path fill="none" stroke="black" d="M163.292,-228.339C159.007,-229.948 155.047,-231.486 151.367,-232.981"/>
<polygon fill="black" stroke="black" points="163.377,-228.308 167.635,-222.488 174.645,-224.179 170.387,-229.999 163.377,-228.308"/>
</g>
<!-- n1&#45;&gt;n3 -->
<g id="edge5" class="edge"><title>n1&#45;&gt;n3</title>
<path fill="none" stroke="black" d="M209.974,-175.866C179.817,-131.53 168.115,-112.611 161.474,-91.7547"/>
<polygon fill="black" stroke="black" points="210.155,-176.133 216.84,-178.837 216.915,-186.047 210.23,-183.343 210.155,-176.133"/>
</g>
</g>
</svg>
