<?xml version="1.0" encoding="UTF-8" standalone="no"?>
<!DOCTYPE svg PUBLIC "-//W3C//DTD SVG 1.1//EN"
 "http://www.w3.org/Graphics/SVG/1.1/DTD/svg11.dtd">
<!-- Generated by graphviz version 2.28.0 (20110507.0327)
 -->
<!-- Title: G Pages: 1 -->
<svg width="649pt" height="549pt"
 viewBox="0.00 0.00 649.00 549.00" xmlns="http://www.w3.org/2000/svg" xmlns:xlink="http://www.w3.org/1999/xlink">
<g id="graph1" class="graph" transform="scale(1 1) rotate(0) translate(4 545)">
<title>G</title>
<polygon fill="white" stroke="white" points="-4,5 -4,-545 646,-545 646,5 -4,5"/>
<g id="graph2" class="cluster"><title>cluster_4</title>
<polygon fill="#e5e5e5" stroke="#474747" points="320.298,-339.695 320.298,-493.695 543.298,-493.695 543.298,-339.695 320.298,-339.695"/>
<text text-anchor="middle" x="431.798" y="-478.495" font-family="Times New Roman,serif" font-size="14.00">[inside website_example/js/sClass.js]</text>
</g>
<!-- n20 -->
<g id="node2" class="node"><title>n20</title>
<polygon fill="CornflowerBlue" stroke="black" points="366.465,-348.361 366.465,-462.361 497.465,-462.361 497.465,-348.361 366.465,-348.361"/>
<text text-anchor="middle" x="431.965" y="-447.161" font-family="Times New Roman,serif" font-size="14.00">«JavaScript Object»</text>
<text text-anchor="middle" x="431.965" y="-432.161" font-family="Times New Roman,serif" font-size="14.00">fooClass</text>
<polyline fill="none" stroke="black" points="366.465,-424.361 497.465,-424.361 "/>
<text text-anchor="start" x="374.465" y="-409.161" font-family="Times New Roman,serif" font-size="14.00">string varB: b</text>
<text text-anchor="start" x="374.465" y="-394.161" font-family="Times New Roman,serif" font-size="14.00">string varA: a</text>
<polyline fill="none" stroke="black" points="366.465,-386.361 497.465,-386.361 "/>
<text text-anchor="start" x="374.465" y="-371.161" font-family="Times New Roman,serif" font-size="14.00">fooFuncA()</text>
<text text-anchor="start" x="374.465" y="-356.161" font-family="Times New Roman,serif" font-size="14.00">fooFuncB()</text>
</g>
<!-- n8 -->
<g id="node3" class="node"><title>n8</title>
<polygon fill="palegreen" stroke="black" points="-0.292,-100.968 -0.292,-138.968 166.708,-138.968 166.708,-100.968 -0.292,-100.968"/>
<text text-anchor="middle" x="83.208" y="-123.768" font-family="Times New Roman,serif" font-size="14.00">«CSS»</text>
<text text-anchor="middle" x="83.208" y="-108.768" font-family="Times New Roman,serif" font-size="14.00">website_example/css/a.css</text>
</g>
<!-- n15 -->
<g id="node4" class="node"><title>n15</title>
<polygon fill="palegreen" stroke="black" points="220.5,-224.644 220.5,-262.644 407.5,-262.644 407.5,-224.644 220.5,-224.644"/>
<text text-anchor="middle" x="314" y="-247.444" font-family="Times New Roman,serif" font-size="14.00">«CSS»</text>
<text text-anchor="middle" x="314" y="-232.444" font-family="Times New Roman,serif" font-size="14.00">website_example/css/main.css</text>
</g>
<!-- n12 -->
<g id="node5" class="node"><title>n12</title>
<polygon fill="palegreen" stroke="black" points="100.036,-360.318 100.036,-398.318 267.036,-398.318 267.036,-360.318 100.036,-360.318"/>
<text text-anchor="middle" x="183.536" y="-383.118" font-family="Times New Roman,serif" font-size="14.00">«CSS»</text>
<text text-anchor="middle" x="183.536" y="-368.118" font-family="Times New Roman,serif" font-size="14.00">website_example/css/a.css</text>
</g>
<!-- n1 -->
<g id="node6" class="node"><title>n1</title>
<polygon fill="lavenderblush" stroke="black" points="145.355,-407.318 145.355,-445.318 295.355,-445.318 295.355,-407.318 145.355,-407.318"/>
<text text-anchor="middle" x="220.355" y="-430.118" font-family="Times New Roman,serif" font-size="14.00">«HTML»</text>
<text text-anchor="middle" x="220.355" y="-415.118" font-family="Times New Roman,serif" font-size="14.00">website_example/c.html</text>
</g>
<!-- n1&#45;&gt;n12 -->
<g id="edge13" class="edge"><title>n1&#45;&gt;n12</title>
<path fill="none" stroke="black" d="M205.379,-407.201C205.24,-407.023 205.1,-406.845 204.961,-406.666"/>
<polygon fill="black" stroke="black" points="207.54,-404.283 198.618,-398.57 202.03,-408.6 207.54,-404.283"/>
</g>
<!-- n5 -->
<g id="node7" class="node"><title>n5</title>
<polygon fill="lavenderblush" stroke="black" points="356.573,-271.644 356.573,-309.644 507.573,-309.644 507.573,-271.644 356.573,-271.644"/>
<text text-anchor="middle" x="432.073" y="-294.444" font-family="Times New Roman,serif" font-size="14.00">«HTML»</text>
<text text-anchor="middle" x="432.073" y="-279.444" font-family="Times New Roman,serif" font-size="14.00">website_example/b.html</text>
</g>
<!-- n5&#45;&gt;n15 -->
<g id="edge7" class="edge"><title>n5&#45;&gt;n15</title>
<path fill="none" stroke="black" d="M384.048,-271.527C379.84,-269.852 375.555,-268.146 371.282,-266.445"/>
<polygon fill="black" stroke="black" points="372.568,-263.19 361.982,-262.743 369.979,-269.694 372.568,-263.19"/>
</g>
<!-- n11 -->
<g id="node8" class="node"><title>n11</title>
<polygon fill="lavenderblush" stroke="black" points="491.134,-220.915 491.134,-258.915 641.134,-258.915 641.134,-220.915 491.134,-220.915"/>
<text text-anchor="middle" x="566.134" y="-243.715" font-family="Times New Roman,serif" font-size="14.00">«HTML»</text>
<text text-anchor="middle" x="566.134" y="-228.715" font-family="Times New Roman,serif" font-size="14.00">website_example/c.html</text>
</g>
<!-- n5&#45;&gt;n11 -->
<g id="edge15" class="edge"><title>n5&#45;&gt;n11</title>
<path fill="none" stroke="black" d="M482.374,-271.61C490.086,-268.692 498.113,-265.654 506.012,-262.665"/>
<polygon fill="black" stroke="black" points="507.437,-265.868 515.552,-259.056 504.96,-259.321 507.437,-265.868"/>
</g>
<!-- n9 -->
<g id="node9" class="node"><title>n9</title>
<polygon fill="lavenderblush" stroke="black" points="40.2196,-280.22 40.2196,-318.22 190.22,-318.22 190.22,-280.22 40.2196,-280.22"/>
<text text-anchor="middle" x="115.22" y="-303.02" font-family="Times New Roman,serif" font-size="14.00">«HTML»</text>
<text text-anchor="middle" x="115.22" y="-288.02" font-family="Times New Roman,serif" font-size="14.00">website_example/c.html</text>
</g>
<!-- n10 -->
<g id="node10" class="node"><title>n10</title>
<polygon fill="lavenderblush" stroke="black" points="236.72,-130.029 236.72,-168.029 387.72,-168.029 387.72,-130.029 236.72,-130.029"/>
<text text-anchor="middle" x="312.22" y="-152.829" font-family="Times New Roman,serif" font-size="14.00">«HTML»</text>
<text text-anchor="middle" x="312.22" y="-137.829" font-family="Times New Roman,serif" font-size="14.00">website_example/b.html</text>
</g>
<!-- n0 -->
<g id="node11" class="node"><title>n0</title>
<polygon fill="lavenderblush" stroke="black" points="103.368,-177.029 103.368,-215.029 252.368,-215.029 252.368,-177.029 103.368,-177.029"/>
<text text-anchor="middle" x="177.868" y="-199.829" font-family="Times New Roman,serif" font-size="14.00">«HTML»</text>
<text text-anchor="middle" x="177.868" y="-184.829" font-family="Times New Roman,serif" font-size="14.00">website_example/a.html</text>
</g>
<!-- n0&#45;&gt;n8 -->
<g id="edge5" class="edge"><title>n0&#45;&gt;n8</title>
<path fill="none" stroke="black" d="M153.982,-176.836C142.21,-167.377 127.851,-155.839 115.15,-145.634"/>
<polygon fill="black" stroke="black" points="117.075,-142.691 107.087,-139.155 112.69,-148.147 117.075,-142.691"/>
</g>
<!-- n0&#45;&gt;n9 -->
<g id="edge11" class="edge"><title>n0&#45;&gt;n9</title>
<path fill="none" stroke="black" d="M166.085,-215.438C156.547,-231.149 142.984,-253.488 132.262,-271.148"/>
<polygon fill="black" stroke="black" points="129.148,-269.533 126.951,-279.897 135.132,-273.166 129.148,-269.533"/>
</g>
<!-- n0&#45;&gt;n10 -->
<g id="edge9" class="edge"><title>n0&#45;&gt;n10</title>
<path fill="none" stroke="black" d="M232.514,-176.912C237.561,-175.147 242.706,-173.347 247.829,-171.555"/>
<polygon fill="black" stroke="black" points="249.339,-174.735 257.622,-168.129 247.028,-168.127 249.339,-174.735"/>
</g>
<!-- n4 -->
<g id="node12" class="node"><title>n4</title>
<polygon fill="aliceblue" stroke="black" points="424.662,-502.195 424.662,-540.195 602.662,-540.195 602.662,-502.195 424.662,-502.195"/>
<text text-anchor="middle" x="513.662" y="-524.995" font-family="Times New Roman,serif" font-size="14.00">«JavaScript»</text>
<text text-anchor="middle" x="513.662" y="-509.995" font-family="Times New Roman,serif" font-size="14.00">website_example/js/sClass.js</text>
</g>
<!-- n4&#45;&gt;n20 -->
<g id="edge3" class="edge"><title>n4&#45;&gt;n20</title>
<path fill="none" stroke="black" d="M500.172,-502.068C493.972,-493.277 486.216,-482.281 478.178,-470.884"/>
<polygon fill="black" stroke="black" points="480.918,-468.696 472.294,-462.541 475.198,-472.73 480.918,-468.696"/>
</g>
<!-- n7 -->
<g id="node13" class="node"><title>n7</title>
<polygon fill="aliceblue" stroke="black" points="0.144865,-20.2963 0.144865,-58.2963 154.145,-58.2963 154.145,-20.2963 0.144865,-20.2963"/>
<text text-anchor="middle" x="77.1449" y="-43.0963" font-family="Times New Roman,serif" font-size="14.00">«JavaScript»</text>
<text text-anchor="middle" x="77.1449" y="-28.0963" font-family="Times New Roman,serif" font-size="14.00">website_example/js/s1.js</text>
</g>
<!-- n3 -->
<g id="node14" class="node"><title>n3</title>
<polygon fill="palegreen" stroke="black" points="419.645,-0.796263 419.645,-61.7963 586.645,-61.7963 586.645,-0.796263 419.645,-0.796263"/>
<text text-anchor="middle" x="503.145" y="-46.5963" font-family="Times New Roman,serif" font-size="14.00">«CSS»</text>
<text text-anchor="middle" x="503.145" y="-31.5963" font-family="Times New Roman,serif" font-size="14.00">website_example/css/a.css</text>
<polyline fill="none" stroke="black" points="419.645,-23.7963 586.645,-23.7963 "/>
<text text-anchor="start" x="427.645" y="-8.59626" font-family="Times New Roman,serif" font-size="14.00">p</text>
</g>
<!-- n2 -->
<g id="node15" class="node"><title>n2</title>
<polygon fill="palegreen" stroke="black" points="199.645,-20.7963 199.645,-111.796 386.645,-111.796 386.645,-20.7963 199.645,-20.7963"/>
<text text-anchor="middle" x="293.145" y="-96.5963" font-family="Times New Roman,serif" font-size="14.00">«CSS»</text>
<text text-anchor="middle" x="293.145" y="-81.5963" font-family="Times New Roman,serif" font-size="14.00">website_example/css/main.css</text>
<polyline fill="none" stroke="black" points="199.645,-73.7963 386.645,-73.7963 "/>
<text text-anchor="start" x="207.645" y="-58.5963" font-family="Times New Roman,serif" font-size="14.00">body</text>
<text text-anchor="start" x="207.645" y="-43.5963" font-family="Times New Roman,serif" font-size="14.00">foo</text>
<text text-anchor="start" x="207.645" y="-28.5963" font-family="Times New Roman,serif" font-size="14.00">bar</text>
</g>
<!-- n6 -->
<g id="node16" class="node"><title>n6</title>
<polygon fill="aliceblue" stroke="black" points="419.645,-100.296 419.645,-176.296 566.645,-176.296 566.645,-100.296 419.645,-100.296"/>
<text text-anchor="middle" x="493.145" y="-161.096" font-family="Times New Roman,serif" font-size="14.00">«JavaScript»</text>
<text text-anchor="middle" x="493.145" y="-146.096" font-family="Times New Roman,serif" font-size="14.00">website_example/js/s.js</text>
<polyline fill="none" stroke="black" points="419.645,-138.296 566.645,-138.296 "/>
<text text-anchor="start" x="427.645" y="-123.096" font-family="Times New Roman,serif" font-size="14.00">barFunc()</text>
<text text-anchor="start" x="427.645" y="-108.096" font-family="Times New Roman,serif" font-size="14.00">barFuncB()</text>
</g>
</g>
</svg>
