<?xml version="1.0" encoding="UTF-8" standalone="no"?>
<!DOCTYPE svg PUBLIC "-//W3C//DTD SVG 1.1//EN"
 "http://www.w3.org/Graphics/SVG/1.1/DTD/svg11.dtd">
<!-- Generated by graphviz version 2.38.0 (20140413.2041)
 -->
<!-- Title: G Pages: 1 -->
<svg width="538pt" height="371pt"
 viewBox="0.00 0.00 538.00 371.00" xmlns="http://www.w3.org/2000/svg" xmlns:xlink="http://www.w3.org/1999/xlink">
<g id="graph0" class="graph" transform="scale(1 1) rotate(0) translate(4 367)">
<title>G</title>
<polygon fill="white" stroke="none" points="-4,4 -4,-367 534,-367 534,4 -4,4"/>
<!-- website_example/a.html -->
<g id="node1" class="node"><title>website_example/a.html</title>
<polygon fill="lavenderblush" stroke="black" points="212,-326.5 212,-362.5 337,-362.5 337,-326.5 212,-326.5"/>
<text text-anchor="middle" x="274.5" y="-347.9" font-family="Times New Roman,serif" font-size="12.00">«HTML»</text>
<text text-anchor="middle" x="274.5" y="-334.9" font-family="Times New Roman,serif" font-size="12.00">website_example/a.html</text>
</g>
<!-- website_example/b.html -->
<g id="node2" class="node"><title>website_example/b.html</title>
<polygon fill="lavenderblush" stroke="black" points="258,-233 258,-269 383,-269 383,-233 258,-233"/>
<text text-anchor="middle" x="320.5" y="-254.4" font-family="Times New Roman,serif" font-size="12.00">«HTML»</text>
<text text-anchor="middle" x="320.5" y="-241.4" font-family="Times New Roman,serif" font-size="12.00">website_example/b.html</text>
</g>
<!-- website_example/a.html&#45;&gt;website_example/b.html -->
<g id="edge9" class="edge"><title>website_example/a.html&#45;&gt;website_example/b.html</title>
<path fill="none" stroke="black" d="M283.152,-326.29C289.963,-312.742 299.568,-293.637 307.332,-278.193"/>
<polygon fill="black" stroke="black" points="310.522,-279.64 311.887,-269.133 304.268,-276.496 310.522,-279.64"/>
</g>
<!-- website_example/c.html -->
<g id="node3" class="node"><title>website_example/c.html</title>
<polygon fill="lavenderblush" stroke="black" points="167,-139.5 167,-175.5 292,-175.5 292,-139.5 167,-139.5"/>
<text text-anchor="middle" x="229.5" y="-160.9" font-family="Times New Roman,serif" font-size="12.00">«HTML»</text>
<text text-anchor="middle" x="229.5" y="-147.9" font-family="Times New Roman,serif" font-size="12.00">website_example/c.html</text>
</g>
<!-- website_example/a.html&#45;&gt;website_example/c.html -->
<g id="edge7" class="edge"><title>website_example/a.html&#45;&gt;website_example/c.html</title>
<path fill="none" stroke="black" d="M264.41,-326.227C258.88,-316.011 252.38,-302.636 248.5,-290 237.788,-255.115 233.059,-213.127 231.01,-186.137"/>
<polygon fill="black" stroke="black" points="234.484,-185.63 230.307,-175.893 227.5,-186.109 234.484,-185.63"/>
</g>
<!-- website_example/css/a.css -->
<g id="node4" class="node"><title>website_example/css/a.css</title>
<polygon fill="palegreen" stroke="black" points="0,-33.5 0,-69.5 137,-69.5 137,-33.5 0,-33.5"/>
<text text-anchor="middle" x="68.5" y="-54.9" font-family="Times New Roman,serif" font-size="12.00">«CSS»</text>
<text text-anchor="middle" x="68.5" y="-41.9" font-family="Times New Roman,serif" font-size="12.00">website_example/css/a.css</text>
</g>
<!-- website_example/a.html&#45;&gt;website_example/css/a.css -->
<g id="edge4" class="edge"><title>website_example/a.html&#45;&gt;website_example/css/a.css</title>
<path fill="none" stroke="black" d="M259.832,-326.467C251.079,-316.108 239.879,-302.508 230.5,-290 174.309,-215.069 113.451,-122.377 84.9602,-78.2242"/>
<polygon fill="black" stroke="black" points="87.7407,-76.0773 79.3852,-69.563 81.8546,-79.866 87.7407,-76.0773"/>
</g>
<!-- website_example/js/s1.js -->
<g id="node7" class="node"><title>website_example/js/s1.js</title>
<polygon fill="aliceblue" stroke="black" points="401,-212.5 401,-289.5 530,-289.5 530,-212.5 401,-212.5"/>
<text text-anchor="middle" x="465.5" y="-275.9" font-family="Times New Roman,serif" font-size="12.00">«JavaScript»</text>
<text text-anchor="middle" x="465.5" y="-262.9" font-family="Times New Roman,serif" font-size="12.00">website_example/js/s1.js</text>
<polyline fill="none" stroke="black" points="401,-255.5 530,-255.5 "/>
<text text-anchor="start" x="409" y="-241.9" font-family="Times New Roman,serif" font-size="12.00">foo</text>
<polyline fill="none" stroke="black" points="401,-234.5 530,-234.5 "/>
</g>
<!-- website_example/a.html&#45;&gt;website_example/js/s1.js -->
<g id="edge2" class="edge"><title>website_example/a.html&#45;&gt;website_example/js/s1.js</title>
<path fill="none" stroke="black" d="M313.544,-326.436C334.573,-317.102 361.114,-305.092 391.579,-290.389"/>
<polygon fill="black" stroke="black" points="393.245,-293.471 400.714,-285.956 390.189,-287.173 393.245,-293.471"/>
</g>
<!-- website_example/b.html&#45;&gt;website_example/c.html -->
<g id="edge10" class="edge"><title>website_example/b.html&#45;&gt;website_example/c.html</title>
<path fill="none" stroke="black" d="M303.384,-232.79C289.402,-218.731 269.467,-198.687 253.827,-182.961"/>
<polygon fill="black" stroke="black" points="256.073,-180.256 246.54,-175.633 251.11,-185.192 256.073,-180.256"/>
</g>
<!-- website_example/css/main.css -->
<g id="node5" class="node"><title>website_example/css/main.css</title>
<polygon fill="palegreen" stroke="black" points="349,-139.5 349,-175.5 502,-175.5 502,-139.5 349,-139.5"/>
<text text-anchor="middle" x="425.5" y="-160.9" font-family="Times New Roman,serif" font-size="12.00">«CSS»</text>
<text text-anchor="middle" x="425.5" y="-147.9" font-family="Times New Roman,serif" font-size="12.00">website_example/css/main.css</text>
</g>
<!-- website_example/b.html&#45;&gt;website_example/css/main.css -->
<g id="edge6" class="edge"><title>website_example/b.html&#45;&gt;website_example/css/main.css</title>
<path fill="none" stroke="black" d="M340.25,-232.79C356.529,-218.603 379.803,-198.322 397.921,-182.533"/>
<polygon fill="black" stroke="black" points="400.599,-184.842 405.839,-175.633 396,-179.564 400.599,-184.842"/>
</g>
<!-- website_example/js/s.js -->
<g id="node6" class="node"><title>website_example/js/s.js</title>
<polygon fill="aliceblue" stroke="black" points="322,-0.5 322,-102.5 445,-102.5 445,-0.5 322,-0.5"/>
<text text-anchor="middle" x="383.5" y="-88.9" font-family="Times New Roman,serif" font-size="12.00">«JavaScript»</text>
<text text-anchor="middle" x="383.5" y="-75.9" font-family="Times New Roman,serif" font-size="12.00">website_example/js/s.js</text>
<polyline fill="none" stroke="black" points="322,-68.5 445,-68.5 "/>
<text text-anchor="start" x="330" y="-54.9" font-family="Times New Roman,serif" font-size="12.00">a</text>
<text text-anchor="start" x="330" y="-41.9" font-family="Times New Roman,serif" font-size="12.00">b</text>
<polyline fill="none" stroke="black" points="322,-34.5 445,-34.5 "/>
<text text-anchor="start" x="330" y="-20.9" font-family="Times New Roman,serif" font-size="12.00">barFunc()</text>
<text text-anchor="start" x="330" y="-7.9" font-family="Times New Roman,serif" font-size="12.00">barFuncB()</text>
</g>
<!-- website_example/b.html&#45;&gt;website_example/js/s.js -->
<g id="edge5" class="edge"><title>website_example/b.html&#45;&gt;website_example/js/s.js</title>
<path fill="none" stroke="black" d="M321.841,-232.687C323.923,-210.51 328.859,-171.106 339.5,-139 342.49,-129.979 346.298,-120.734 350.42,-111.801"/>
<polygon fill="black" stroke="black" points="353.649,-113.16 354.806,-102.628 347.334,-110.14 353.649,-113.16"/>
</g>
<!-- website_example/c.html&#45;&gt;website_example/css/a.css -->
<g id="edge3" class="edge"><title>website_example/c.html&#45;&gt;website_example/css/a.css</title>
<path fill="none" stroke="black" d="M202.952,-139.407C186.656,-128.91 165.364,-115.187 146.5,-103 132.383,-93.8804 116.838,-83.82 103.366,-75.0948"/>
<polygon fill="black" stroke="black" points="105.144,-72.0762 94.8477,-69.5772 101.338,-77.9514 105.144,-72.0762"/>
</g>
<!-- website_example/c.html&#45;&gt;website_example/js/s.js -->
<g id="edge1" class="edge"><title>website_example/c.html&#45;&gt;website_example/js/s.js</title>
<path fill="none" stroke="black" d="M256.618,-139.461C272.933,-129.1 294.048,-115.499 312.5,-103 312.782,-102.809 313.064,-102.618 313.347,-102.426"/>
<polygon fill="black" stroke="black" points="315.385,-105.272 321.661,-96.7352 311.432,-99.4954 315.385,-105.272"/>
</g>
<!-- website_example/js/sClass.js -->
<g id="node8" class="node"><title>website_example/js/sClass.js</title>
<polygon fill="aliceblue" stroke="black" points="155.5,-0.5 155.5,-102.5 303.5,-102.5 303.5,-0.5 155.5,-0.5"/>
<text text-anchor="middle" x="229.5" y="-88.9" font-family="Times New Roman,serif" font-size="12.00">«JavaScript»</text>
<text text-anchor="middle" x="229.5" y="-75.9" font-family="Times New Roman,serif" font-size="12.00">website_example/js/sClass.js</text>
<polyline fill="none" stroke="black" points="155.5,-68.5 303.5,-68.5 "/>
<text text-anchor="start" x="163.5" y="-54.9" font-family="Times New Roman,serif" font-size="12.00">c</text>
<text text-anchor="start" x="163.5" y="-41.9" font-family="Times New Roman,serif" font-size="12.00">d</text>
<polyline fill="none" stroke="black" points="155.5,-34.5 303.5,-34.5 "/>
<text text-anchor="start" x="163.5" y="-20.9" font-family="Times New Roman,serif" font-size="12.00">fooFuncA()</text>
<text text-anchor="start" x="163.5" y="-7.9" font-family="Times New Roman,serif" font-size="12.00">fooFuncB()</text>
</g>
<!-- website_example/c.html&#45;&gt;website_example/js/sClass.js -->
<g id="edge8" class="edge"><title>website_example/c.html&#45;&gt;website_example/js/sClass.js</title>
<path fill="none" stroke="black" d="M229.5,-139.327C229.5,-131.876 229.5,-122.66 229.5,-113.043"/>
<polygon fill="black" stroke="black" points="233,-112.934 229.5,-102.934 226,-112.934 233,-112.934"/>
</g>
</g>
</svg>
