<?xml version="1.0" encoding="UTF-8" standalone="no"?>
<!DOCTYPE svg PUBLIC "-//W3C//DTD SVG 1.1//EN"
 "http://www.w3.org/Graphics/SVG/1.1/DTD/svg11.dtd">
<!-- Generated by graphviz version 2.28.0 (20110507.0327)
 -->
<!-- Title: G Pages: 1 -->
<svg width="680pt" height="614pt"
 viewBox="0.00 0.00 680.00 614.00" xmlns="http://www.w3.org/2000/svg" xmlns:xlink="http://www.w3.org/1999/xlink">
<g id="graph1" class="graph" transform="scale(1 1) rotate(0) translate(4 610)">
<title>G</title>
<polygon fill="white" stroke="white" points="-4,5 -4,-610 677,-610 677,5 -4,5"/>
<g id="graph2" class="cluster"><title>cluster_7</title>
<polygon fill="#e5e5e5" stroke="#474747" points="336.298,-356.695 336.298,-510.695 559.298,-510.695 559.298,-356.695 336.298,-356.695"/>
<text text-anchor="middle" x="447.798" y="-495.495" font-family="Times New Roman,serif" font-size="14.00">[inside website_example/js/sClass.js]</text>
</g>
<!-- n20 -->
<g id="node2" class="node"><title>n20</title>
<polygon fill="CornflowerBlue" stroke="black" points="382.465,-365.361 382.465,-479.361 513.465,-479.361 513.465,-365.361 382.465,-365.361"/>
<text text-anchor="middle" x="447.965" y="-464.161" font-family="Times New Roman,serif" font-size="14.00">«JavaScript Object»</text>
<text text-anchor="middle" x="447.965" y="-449.161" font-family="Times New Roman,serif" font-size="14.00">fooClass</text>
<polyline fill="none" stroke="black" points="382.465,-441.361 513.465,-441.361 "/>
<text text-anchor="start" x="390.465" y="-426.161" font-family="Times New Roman,serif" font-size="14.00">string varA: a</text>
<text text-anchor="start" x="390.465" y="-411.161" font-family="Times New Roman,serif" font-size="14.00">string varB: b</text>
<polyline fill="none" stroke="black" points="382.465,-403.361 513.465,-403.361 "/>
<text text-anchor="start" x="390.465" y="-388.161" font-family="Times New Roman,serif" font-size="14.00">fooFuncB()</text>
<text text-anchor="start" x="390.465" y="-373.161" font-family="Times New Roman,serif" font-size="14.00">fooFuncA()</text>
</g>
<!-- n12 -->
<g id="node3" class="node"><title>n12</title>
<polygon fill="palegreen" stroke="black" points="357.257,-147.521 357.257,-185.521 544.257,-185.521 544.257,-147.521 357.257,-147.521"/>
<text text-anchor="middle" x="450.757" y="-170.321" font-family="Times New Roman,serif" font-size="14.00">«CSS»</text>
<text text-anchor="middle" x="450.757" y="-155.321" font-family="Times New Roman,serif" font-size="14.00">website_example/css/main.css</text>
</g>
<!-- n13 -->
<g id="node4" class="node"><title>n13</title>
<polygon fill="palegreen" stroke="black" points="294.036,-21.3175 294.036,-59.3175 461.036,-59.3175 461.036,-21.3175 294.036,-21.3175"/>
<text text-anchor="middle" x="377.536" y="-44.1175" font-family="Times New Roman,serif" font-size="14.00">«CSS»</text>
<text text-anchor="middle" x="377.536" y="-29.1175" font-family="Times New Roman,serif" font-size="14.00">website_example/css/a.css</text>
</g>
<!-- n8 -->
<g id="node5" class="node"><title>n8</title>
<polygon fill="palegreen" stroke="black" points="126.237,-126.03 126.237,-164.03 293.237,-164.03 293.237,-126.03 126.237,-126.03"/>
<text text-anchor="middle" x="209.737" y="-148.83" font-family="Times New Roman,serif" font-size="14.00">«CSS»</text>
<text text-anchor="middle" x="209.737" y="-133.83" font-family="Times New Roman,serif" font-size="14.00">website_example/css/a.css</text>
</g>
<!-- n9 -->
<g id="node6" class="node"><title>n9</title>
<polygon fill="lavenderblush" stroke="black" points="63.4818,-364.551 63.4818,-402.551 214.482,-402.551 214.482,-364.551 63.4818,-364.551"/>
<text text-anchor="middle" x="138.982" y="-387.351" font-family="Times New Roman,serif" font-size="14.00">«HTML»</text>
<text text-anchor="middle" x="138.982" y="-372.351" font-family="Times New Roman,serif" font-size="14.00">website_example/b.html</text>
</g>
<!-- n17 -->
<g id="node7" class="node"><title>n17</title>
<polygon fill="lavenderblush" stroke="black" points="466.115,-290.339 466.115,-328.339 616.115,-328.339 616.115,-290.339 466.115,-290.339"/>
<text text-anchor="middle" x="541.115" y="-313.139" font-family="Times New Roman,serif" font-size="14.00">«HTML»</text>
<text text-anchor="middle" x="541.115" y="-298.139" font-family="Times New Roman,serif" font-size="14.00">website_example/c.html</text>
</g>
<!-- n0 -->
<g id="node8" class="node"><title>n0</title>
<polygon fill="lavenderblush" stroke="black" points="145.394,-260.314 145.394,-298.314 294.394,-298.314 294.394,-260.314 145.394,-260.314"/>
<text text-anchor="middle" x="219.894" y="-283.114" font-family="Times New Roman,serif" font-size="14.00">«HTML»</text>
<text text-anchor="middle" x="219.894" y="-268.114" font-family="Times New Roman,serif" font-size="14.00">website_example/a.html</text>
</g>
<!-- n0&#45;&gt;n8 -->
<g id="edge7" class="edge"><title>n0&#45;&gt;n8</title>
<path fill="none" stroke="black" d="M218.439,-260.075C216.742,-237.638 213.918,-200.312 211.949,-174.281"/>
<polygon fill="black" stroke="black" points="215.434,-173.942 211.189,-164.234 208.454,-174.47 215.434,-173.942"/>
</g>
<!-- n0&#45;&gt;n9 -->
<g id="edge9" class="edge"><title>n0&#45;&gt;n9</title>
<path fill="none" stroke="black" d="M205.053,-298.433C192.472,-314.641 174.277,-338.082 160.164,-356.262"/>
<polygon fill="black" stroke="black" points="157.369,-354.155 154.002,-364.201 162.899,-358.447 157.369,-354.155"/>
</g>
<!-- n11 -->
<g id="node10" class="node"><title>n11</title>
<polygon fill="lavenderblush" stroke="black" points="302.394,-281.793 302.394,-319.793 452.394,-319.793 452.394,-281.793 302.394,-281.793"/>
<text text-anchor="middle" x="377.394" y="-304.593" font-family="Times New Roman,serif" font-size="14.00">«HTML»</text>
<text text-anchor="middle" x="377.394" y="-289.593" font-family="Times New Roman,serif" font-size="14.00">website_example/c.html</text>
</g>
<!-- n0&#45;&gt;n11 -->
<g id="edge3" class="edge"><title>n0&#45;&gt;n11</title>
<path fill="none" stroke="black" d="M294.493,-289.487C294.652,-289.509 294.811,-289.531 294.97,-289.552"/>
<polygon fill="black" stroke="black" points="291.751,-292.646 302.132,-290.529 292.697,-285.71 291.751,-292.646"/>
</g>
<!-- n4 -->
<g id="node9" class="node"><title>n4</title>
<polygon fill="lavenderblush" stroke="black" points="339.355,-68.3175 339.355,-106.318 489.355,-106.318 489.355,-68.3175 339.355,-68.3175"/>
<text text-anchor="middle" x="414.355" y="-91.1175" font-family="Times New Roman,serif" font-size="14.00">«HTML»</text>
<text text-anchor="middle" x="414.355" y="-76.1175" font-family="Times New Roman,serif" font-size="14.00">website_example/c.html</text>
</g>
<!-- n4&#45;&gt;n13 -->
<g id="edge5" class="edge"><title>n4&#45;&gt;n13</title>
<path fill="none" stroke="black" d="M399.379,-68.2008C399.24,-68.0229 399.1,-67.8447 398.961,-67.6661"/>
<polygon fill="black" stroke="black" points="401.54,-65.2835 392.618,-59.5698 396.03,-69.6003 401.54,-65.2835"/>
</g>
<!-- n1 -->
<g id="node11" class="node"><title>n1</title>
<polygon fill="lavenderblush" stroke="black" points="459.016,-194.521 459.016,-232.521 610.016,-232.521 610.016,-194.521 459.016,-194.521"/>
<text text-anchor="middle" x="534.516" y="-217.321" font-family="Times New Roman,serif" font-size="14.00">«HTML»</text>
<text text-anchor="middle" x="534.516" y="-202.321" font-family="Times New Roman,serif" font-size="14.00">website_example/b.html</text>
</g>
<!-- n1&#45;&gt;n12 -->
<g id="edge15" class="edge"><title>n1&#45;&gt;n12</title>
<path fill="none" stroke="black" d="M500.448,-194.404C498.19,-193.136 495.899,-191.851 493.605,-190.564"/>
<polygon fill="black" stroke="black" points="495.229,-187.462 484.795,-185.62 491.803,-193.566 495.229,-187.462"/>
</g>
<!-- n1&#45;&gt;n17 -->
<g id="edge13" class="edge"><title>n1&#45;&gt;n17</title>
<path fill="none" stroke="black" d="M535.852,-232.911C536.788,-246.507 538.056,-264.92 539.113,-280.267"/>
<polygon fill="black" stroke="black" points="535.625,-280.568 539.804,-290.304 542.609,-280.087 535.625,-280.568"/>
</g>
<!-- n6 -->
<g id="node12" class="node"><title>n6</title>
<polygon fill="aliceblue" stroke="black" points="252.145,-567.296 252.145,-605.296 406.145,-605.296 406.145,-567.296 252.145,-567.296"/>
<text text-anchor="middle" x="329.145" y="-590.096" font-family="Times New Roman,serif" font-size="14.00">«JavaScript»</text>
<text text-anchor="middle" x="329.145" y="-575.096" font-family="Times New Roman,serif" font-size="14.00">website_example/js/s1.js</text>
</g>
<!-- n7 -->
<g id="node13" class="node"><title>n7</title>
<polygon fill="aliceblue" stroke="black" points="440.662,-519.195 440.662,-557.195 618.662,-557.195 618.662,-519.195 440.662,-519.195"/>
<text text-anchor="middle" x="529.662" y="-541.995" font-family="Times New Roman,serif" font-size="14.00">«JavaScript»</text>
<text text-anchor="middle" x="529.662" y="-526.995" font-family="Times New Roman,serif" font-size="14.00">website_example/js/sClass.js</text>
</g>
<!-- n7&#45;&gt;n20 -->
<g id="edge11" class="edge"><title>n7&#45;&gt;n20</title>
<path fill="none" stroke="black" d="M516.172,-519.068C509.972,-510.277 502.216,-499.281 494.178,-487.884"/>
<polygon fill="black" stroke="black" points="496.918,-485.696 488.294,-479.541 491.198,-489.73 496.918,-485.696"/>
</g>
<!-- n5 -->
<g id="node14" class="node"><title>n5</title>
<polygon fill="palegreen" stroke="black" points="-0.355135,-21.7963 -0.355135,-82.7963 166.645,-82.7963 166.645,-21.7963 -0.355135,-21.7963"/>
<text text-anchor="middle" x="83.1449" y="-67.5963" font-family="Times New Roman,serif" font-size="14.00">«CSS»</text>
<text text-anchor="middle" x="83.1449" y="-52.5963" font-family="Times New Roman,serif" font-size="14.00">website_example/css/a.css</text>
<polyline fill="none" stroke="black" points="-0.355135,-44.7963 166.645,-44.7963 "/>
<text text-anchor="start" x="7.64487" y="-29.5963" font-family="Times New Roman,serif" font-size="14.00">p</text>
</g>
<!-- n2 -->
<g id="node15" class="node"><title>n2</title>
<polygon fill="palegreen" stroke="black" points="104.645,-441.796 104.645,-532.796 291.645,-532.796 291.645,-441.796 104.645,-441.796"/>
<text text-anchor="middle" x="198.145" y="-517.596" font-family="Times New Roman,serif" font-size="14.00">«CSS»</text>
<text text-anchor="middle" x="198.145" y="-502.596" font-family="Times New Roman,serif" font-size="14.00">website_example/css/main.css</text>
<polyline fill="none" stroke="black" points="104.645,-494.796 291.645,-494.796 "/>
<text text-anchor="start" x="112.645" y="-479.596" font-family="Times New Roman,serif" font-size="14.00">bar</text>
<text text-anchor="start" x="112.645" y="-464.596" font-family="Times New Roman,serif" font-size="14.00">foo</text>
<text text-anchor="start" x="112.645" y="-449.596" font-family="Times New Roman,serif" font-size="14.00">body</text>
</g>
<!-- n3 -->
<g id="node16" class="node"><title>n3</title>
<polygon fill="aliceblue" stroke="black" points="524.645,-0.296263 524.645,-76.2963 671.645,-76.2963 671.645,-0.296263 524.645,-0.296263"/>
<text text-anchor="middle" x="598.145" y="-61.0963" font-family="Times New Roman,serif" font-size="14.00">«JavaScript»</text>
<text text-anchor="middle" x="598.145" y="-46.0963" font-family="Times New Roman,serif" font-size="14.00">website_example/js/s.js</text>
<polyline fill="none" stroke="black" points="524.645,-38.2963 671.645,-38.2963 "/>
<text text-anchor="start" x="532.645" y="-23.0963" font-family="Times New Roman,serif" font-size="14.00">barFunc()</text>
<text text-anchor="start" x="532.645" y="-8.09626" font-family="Times New Roman,serif" font-size="14.00">barFuncB()</text>
</g>
</g>
</svg>
