<?xml version="1.0" encoding="UTF-8" standalone="no"?>
<!DOCTYPE svg PUBLIC "-//W3C//DTD SVG 1.1//EN"
 "http://www.w3.org/Graphics/SVG/1.1/DTD/svg11.dtd">
<!-- Generated by graphviz version 2.38.0 (20140413.2041)
 -->
<!-- Title: G Pages: 1 -->
<svg width="582pt" height="413pt"
 viewBox="0.00 0.00 581.50 413.00" xmlns="http://www.w3.org/2000/svg" xmlns:xlink="http://www.w3.org/1999/xlink">
<g id="graph0" class="graph" transform="scale(1 1) rotate(0) translate(4 409)">
<title>G</title>
<polygon fill="white" stroke="none" points="-4,4 -4,-409 577.5,-409 577.5,4 -4,4"/>
<!-- website_example/a.html -->
<g id="node1" class="node"><title>website_example/a.html</title>
<polygon fill="lavenderblush" stroke="black" points="212,-347.5 212,-383.5 337,-383.5 337,-347.5 212,-347.5"/>
<text text-anchor="middle" x="274.5" y="-368.9" font-family="Times New Roman,serif" font-size="12.00">«HTML»</text>
<text text-anchor="middle" x="274.5" y="-355.9" font-family="Times New Roman,serif" font-size="12.00">website_example/a.html</text>
</g>
<!-- website_example/b.html -->
<g id="node2" class="node"><title>website_example/b.html</title>
<polygon fill="lavenderblush" stroke="black" points="258,-233 258,-269 383,-269 383,-233 258,-233"/>
<text text-anchor="middle" x="320.5" y="-254.4" font-family="Times New Roman,serif" font-size="12.00">«HTML»</text>
<text text-anchor="middle" x="320.5" y="-241.4" font-family="Times New Roman,serif" font-size="12.00">website_example/b.html</text>
</g>
<!-- website_example/a.html&#45;&gt;website_example/b.html -->
<g id="edge9" class="edge"><title>website_example/a.html&#45;&gt;website_example/b.html</title>
<path fill="none" stroke="black" d="M281.486,-347.414C288.95,-329.16 300.881,-299.982 309.585,-278.693"/>
<polygon fill="black" stroke="black" points="312.903,-279.828 313.448,-269.247 306.423,-277.179 312.903,-279.828"/>
</g>
<!-- website_example/c.html -->
<g id="node3" class="node"><title>website_example/c.html</title>
<polygon fill="lavenderblush" stroke="black" points="167,-139.5 167,-175.5 292,-175.5 292,-139.5 167,-139.5"/>
<text text-anchor="middle" x="229.5" y="-160.9" font-family="Times New Roman,serif" font-size="12.00">«HTML»</text>
<text text-anchor="middle" x="229.5" y="-147.9" font-family="Times New Roman,serif" font-size="12.00">website_example/c.html</text>
</g>
<!-- website_example/a.html&#45;&gt;website_example/c.html -->
<g id="edge4" class="edge"><title>website_example/a.html&#45;&gt;website_example/c.html</title>
<path fill="none" stroke="black" d="M267.444,-347.323C261.573,-332.403 253.41,-310.094 248.5,-290 239.839,-254.55 234.626,-212.695 231.908,-185.89"/>
<polygon fill="black" stroke="black" points="235.371,-185.34 230.924,-175.723 228.404,-186.014 235.371,-185.34"/>
</g>
<!-- website_example/css/a.css -->
<g id="node4" class="node"><title>website_example/css/a.css</title>
<polygon fill="palegreen" stroke="black" points="0,-33.5 0,-69.5 137,-69.5 137,-33.5 0,-33.5"/>
<text text-anchor="middle" x="68.5" y="-54.9" font-family="Times New Roman,serif" font-size="12.00">«CSS»</text>
<text text-anchor="middle" x="68.5" y="-41.9" font-family="Times New Roman,serif" font-size="12.00">website_example/css/a.css</text>
</g>
<!-- website_example/a.html&#45;&gt;website_example/css/a.css -->
<g id="edge5" class="edge"><title>website_example/a.html&#45;&gt;website_example/css/a.css</title>
<path fill="none" stroke="black" d="M263.131,-347.281C228.803,-295.289 126.071,-139.695 85.3728,-78.0549"/>
<polygon fill="black" stroke="black" points="88.2645,-76.0823 79.8337,-69.6657 82.4229,-79.9393 88.2645,-76.0823"/>
</g>
<!-- website_example/js/s1.js -->
<g id="node7" class="node"><title>website_example/js/s1.js</title>
<polygon fill="aliceblue" stroke="black" points="401,-212.5 401,-289.5 530,-289.5 530,-212.5 401,-212.5"/>
<text text-anchor="middle" x="465.5" y="-275.9" font-family="Times New Roman,serif" font-size="12.00">«JavaScript»</text>
<text text-anchor="middle" x="465.5" y="-262.9" font-family="Times New Roman,serif" font-size="12.00">website_example/js/s1.js</text>
<polyline fill="none" stroke="black" points="401,-255.5 530,-255.5 "/>
<text text-anchor="start" x="409" y="-241.9" font-family="Times New Roman,serif" font-size="12.00">foo</text>
<polyline fill="none" stroke="black" points="401,-234.5 530,-234.5 "/>
</g>
<!-- website_example/a.html&#45;&gt;website_example/js/s1.js -->
<g id="edge1" class="edge"><title>website_example/a.html&#45;&gt;website_example/js/s1.js</title>
<path fill="none" stroke="black" d="M303.509,-347.414C327.261,-333.423 361.907,-313.017 393.068,-294.663"/>
<polygon fill="black" stroke="black" points="394.912,-297.639 401.753,-289.548 391.36,-291.607 394.912,-297.639"/>
</g>
<!-- website_example/b.html&#45;&gt;website_example/c.html -->
<g id="edge2" class="edge"><title>website_example/b.html&#45;&gt;website_example/c.html</title>
<path fill="none" stroke="black" d="M303.384,-232.79C289.402,-218.731 269.467,-198.687 253.827,-182.961"/>
<polygon fill="black" stroke="black" points="256.073,-180.256 246.54,-175.633 251.11,-185.192 256.073,-180.256"/>
</g>
<!-- website_example/css/main.css -->
<g id="node5" class="node"><title>website_example/css/main.css</title>
<polygon fill="palegreen" stroke="black" points="349,-139.5 349,-175.5 502,-175.5 502,-139.5 349,-139.5"/>
<text text-anchor="middle" x="425.5" y="-160.9" font-family="Times New Roman,serif" font-size="12.00">«CSS»</text>
<text text-anchor="middle" x="425.5" y="-147.9" font-family="Times New Roman,serif" font-size="12.00">website_example/css/main.css</text>
</g>
<!-- website_example/b.html&#45;&gt;website_example/css/main.css -->
<g id="edge3" class="edge"><title>website_example/b.html&#45;&gt;website_example/css/main.css</title>
<path fill="none" stroke="black" d="M340.25,-232.79C356.529,-218.603 379.803,-198.322 397.921,-182.533"/>
<polygon fill="black" stroke="black" points="400.599,-184.842 405.839,-175.633 396,-179.564 400.599,-184.842"/>
</g>
<!-- website_example/js/s.js -->
<g id="node6" class="node"><title>website_example/js/s.js</title>
<polygon fill="aliceblue" stroke="black" points="322,-0.5 322,-102.5 445,-102.5 445,-0.5 322,-0.5"/>
<text text-anchor="middle" x="383.5" y="-88.9" font-family="Times New Roman,serif" font-size="12.00">«JavaScript»</text>
<text text-anchor="middle" x="383.5" y="-75.9" font-family="Times New Roman,serif" font-size="12.00">website_example/js/s.js</text>
<polyline fill="none" stroke="black" points="322,-68.5 445,-68.5 "/>
<text text-anchor="start" x="330" y="-54.9" font-family="Times New Roman,serif" font-size="12.00">a</text>
<text text-anchor="start" x="330" y="-41.9" font-family="Times New Roman,serif" font-size="12.00">b</text>
<polyline fill="none" stroke="black" points="322,-34.5 445,-34.5 "/>
<text text-anchor="start" x="330" y="-20.9" font-family="Times New Roman,serif" font-size="12.00">barFunc()</text>
<text text-anchor="start" x="330" y="-7.9" font-family="Times New Roman,serif" font-size="12.00">barFuncB()</text>
</g>
<!-- website_example/b.html&#45;&gt;website_example/js/s.js -->
<g id="edge10" class="edge"><title>website_example/b.html&#45;&gt;website_example/js/s.js</title>
<path fill="none" stroke="black" d="M321.841,-232.687C323.923,-210.51 328.859,-171.106 339.5,-139 342.49,-129.979 346.298,-120.734 350.42,-111.801"/>
<polygon fill="black" stroke="black" points="353.649,-113.16 354.806,-102.628 347.334,-110.14 353.649,-113.16"/>
</g>
<!-- website_example/c.html&#45;&gt;website_example/css/a.css -->
<g id="edge8" class="edge"><title>website_example/c.html&#45;&gt;website_example/css/a.css</title>
<path fill="none" stroke="black" d="M202.952,-139.407C186.656,-128.91 165.364,-115.187 146.5,-103 132.383,-93.8804 116.838,-83.82 103.366,-75.0948"/>
<polygon fill="black" stroke="black" points="105.144,-72.0762 94.8477,-69.5772 101.338,-77.9514 105.144,-72.0762"/>
</g>
<!-- website_example/c.html&#45;&gt;website_example/js/s.js -->
<g id="edge6" class="edge"><title>website_example/c.html&#45;&gt;website_example/js/s.js</title>
<path fill="none" stroke="black" d="M256.618,-139.461C272.933,-129.1 294.048,-115.499 312.5,-103 312.782,-102.809 313.064,-102.618 313.347,-102.426"/>
<polygon fill="black" stroke="black" points="315.385,-105.272 321.661,-96.7352 311.432,-99.4954 315.385,-105.272"/>
</g>
<!-- website_example/js/sClass.js -->
<g id="node8" class="node"><title>website_example/js/sClass.js</title>
<polygon fill="aliceblue" stroke="black" points="155.5,-0.5 155.5,-102.5 303.5,-102.5 303.5,-0.5 155.5,-0.5"/>
<text text-anchor="middle" x="229.5" y="-88.9" font-family="Times New Roman,serif" font-size="12.00">«JavaScript»</text>
<text text-anchor="middle" x="229.5" y="-75.9" font-family="Times New Roman,serif" font-size="12.00">website_example/js/sClass.js</text>
<polyline fill="none" stroke="black" points="155.5,-68.5 303.5,-68.5 "/>
<text text-anchor="start" x="163.5" y="-54.9" font-family="Times New Roman,serif" font-size="12.00">c</text>
<text text-anchor="start" x="163.5" y="-41.9" font-family="Times New Roman,serif" font-size="12.00">d</text>
<polyline fill="none" stroke="black" points="155.5,-34.5 303.5,-34.5 "/>
<text text-anchor="start" x="163.5" y="-20.9" font-family="Times New Roman,serif" font-size="12.00">fooFuncA()</text>
<text text-anchor="start" x="163.5" y="-7.9" font-family="Times New Roman,serif" font-size="12.00">fooFuncB()</text>
</g>
<!-- website_example/c.html&#45;&gt;website_example/js/sClass.js -->
<g id="edge7" class="edge"><title>website_example/c.html&#45;&gt;website_example/js/sClass.js</title>
<path fill="none" stroke="black" d="M229.5,-139.327C229.5,-131.876 229.5,-122.66 229.5,-113.043"/>
<polygon fill="black" stroke="black" points="233,-112.934 229.5,-102.934 226,-112.934 233,-112.934"/>
</g>
<!-- website_example/node_modules/a/module.js -->
<g id="node9" class="node"><title>website_example/node_modules/a/module.js</title>
<polygon fill="aliceblue" stroke="black" points="355.5,-326.5 355.5,-404.5 573.5,-404.5 573.5,-326.5 355.5,-326.5"/>
<text text-anchor="middle" x="464.5" y="-390.9" font-family="Times New Roman,serif" font-size="12.00">«JavaScript»</text>
<text text-anchor="middle" x="464.5" y="-377.9" font-family="Times New Roman,serif" font-size="12.00">website_example/node_modules/a/module.js</text>
<polyline fill="none" stroke="black" points="355.5,-370.5 573.5,-370.5 "/>
<polyline fill="none" stroke="black" points="355.5,-348.5 573.5,-348.5 "/>
</g>
</g>
</svg>
