<?xml version="1.0" encoding="UTF-8" standalone="no"?>
<!DOCTYPE svg PUBLIC "-//W3C//DTD SVG 1.1//EN"
 "http://www.w3.org/Graphics/SVG/1.1/DTD/svg11.dtd">
<!-- Generated by graphviz version 2.28.0 (20110507.0327)
 -->
<!-- Title: G Pages: 1 -->
<svg width="633pt" height="518pt"
 viewBox="0.00 0.00 633.00 518.00" xmlns="http://www.w3.org/2000/svg" xmlns:xlink="http://www.w3.org/1999/xlink">
<g id="graph1" class="graph" transform="scale(1 1) rotate(0) translate(4 514)">
<title>G</title>
<polygon fill="white" stroke="white" points="-4,5 -4,-514 630,-514 630,5 -4,5"/>
<!-- n6 -->
<g id="node1" class="node"><title>n6</title>
<polygon fill="lavenderblush" stroke="black" points="199,-293 199,-331 349,-331 349,-293 199,-293"/>
<text text-anchor="middle" x="274" y="-315.8" font-family="Times New Roman,serif" font-size="14.00">«HTML»</text>
<text text-anchor="middle" x="274" y="-300.8" font-family="Times New Roman,serif" font-size="14.00">website_example/c.html</text>
</g>
<!-- n4 -->
<g id="node4" class="node"><title>n4</title>
<polygon fill="aliceblue" stroke="black" points="185,-172 185,-210 363,-210 363,-172 185,-172"/>
<text text-anchor="middle" x="274" y="-194.8" font-family="Times New Roman,serif" font-size="14.00">«JavaScript»</text>
<text text-anchor="middle" x="274" y="-179.8" font-family="Times New Roman,serif" font-size="14.00">website_example/js/sClass.js</text>
</g>
<!-- n6&#45;&gt;n4 -->
<g id="edge20" class="edge"><title>n6&#45;&gt;n4</title>
<path fill="none" stroke="black" d="M274,-292.926C274,-273.705 274,-243.033 274,-220.542"/>
<polygon fill="black" stroke="black" points="277.5,-220.244 274,-210.244 270.5,-220.244 277.5,-220.244"/>
</g>
<!-- n1 -->
<g id="node6" class="node"><title>n1</title>
<polygon fill="palegreen" stroke="black" points="-0.5,-160.5 -0.5,-221.5 166.5,-221.5 166.5,-160.5 -0.5,-160.5"/>
<text text-anchor="middle" x="83" y="-206.3" font-family="Times New Roman,serif" font-size="14.00">«CSS»</text>
<text text-anchor="middle" x="83" y="-191.3" font-family="Times New Roman,serif" font-size="14.00">website_example/css/a.css</text>
<polyline fill="none" stroke="black" points="-0.5,-183.5 166.5,-183.5 "/>
<text text-anchor="start" x="7.5" y="-168.3" font-family="Times New Roman,serif" font-size="14.00">p</text>
</g>
<!-- n6&#45;&gt;n1 -->
<g id="edge16" class="edge"><title>n6&#45;&gt;n1</title>
<path fill="none" stroke="black" d="M244.991,-292.926C216.995,-275.484 173.865,-248.612 139.146,-226.981"/>
<polygon fill="black" stroke="black" points="140.853,-223.921 130.515,-221.603 137.151,-229.862 140.853,-223.921"/>
</g>
<!-- n2 -->
<g id="node7" class="node"><title>n2</title>
<polygon fill="aliceblue" stroke="black" points="381.5,-153 381.5,-229 528.5,-229 528.5,-153 381.5,-153"/>
<text text-anchor="middle" x="455" y="-213.8" font-family="Times New Roman,serif" font-size="14.00">«JavaScript»</text>
<text text-anchor="middle" x="455" y="-198.8" font-family="Times New Roman,serif" font-size="14.00">website_example/js/s.js</text>
<polyline fill="none" stroke="black" points="381.5,-191 528.5,-191 "/>
<text text-anchor="start" x="389.5" y="-175.8" font-family="Times New Roman,serif" font-size="14.00">barFunc()</text>
<text text-anchor="start" x="389.5" y="-160.8" font-family="Times New Roman,serif" font-size="14.00">barFuncB()</text>
</g>
<!-- n6&#45;&gt;n2 -->
<g id="edge18" class="edge"><title>n6&#45;&gt;n2</title>
<path fill="none" stroke="black" d="M301.49,-292.926C324.903,-277.534 359.485,-254.797 389.901,-234.8"/>
<polygon fill="black" stroke="black" points="391.924,-237.659 398.357,-229.241 388.078,-231.81 391.924,-237.659"/>
</g>
<!-- n0 -->
<g id="node2" class="node"><title>n0</title>
<polygon fill="lavenderblush" stroke="black" points="250.5,-471 250.5,-509 399.5,-509 399.5,-471 250.5,-471"/>
<text text-anchor="middle" x="325" y="-493.8" font-family="Times New Roman,serif" font-size="14.00">«HTML»</text>
<text text-anchor="middle" x="325" y="-478.8" font-family="Times New Roman,serif" font-size="14.00">website_example/a.html</text>
</g>
<!-- n0&#45;&gt;n6 -->
<g id="edge8" class="edge"><title>n0&#45;&gt;n6</title>
<path fill="none" stroke="black" d="M311.442,-470.579C304.545,-460.309 296.657,-446.999 292,-434 281.08,-403.522 276.782,-366.436 275.092,-341.419"/>
<polygon fill="black" stroke="black" points="278.571,-340.949 274.501,-331.167 271.583,-341.352 278.571,-340.949"/>
</g>
<!-- n3 -->
<g id="node3" class="node"><title>n3</title>
<polygon fill="lavenderblush" stroke="black" points="301.5,-395 301.5,-433 452.5,-433 452.5,-395 301.5,-395"/>
<text text-anchor="middle" x="377" y="-417.8" font-family="Times New Roman,serif" font-size="14.00">«HTML»</text>
<text text-anchor="middle" x="377" y="-402.8" font-family="Times New Roman,serif" font-size="14.00">website_example/b.html</text>
</g>
<!-- n0&#45;&gt;n3 -->
<g id="edge4" class="edge"><title>n0&#45;&gt;n3</title>
<path fill="none" stroke="black" d="M337.854,-470.708C344.088,-461.836 351.69,-451.017 358.532,-441.282"/>
<polygon fill="black" stroke="black" points="361.408,-443.276 364.294,-433.082 355.681,-439.251 361.408,-443.276"/>
</g>
<!-- n7 -->
<g id="node5" class="node"><title>n7</title>
<polygon fill="aliceblue" stroke="black" points="471,-395 471,-433 625,-433 625,-395 471,-395"/>
<text text-anchor="middle" x="548" y="-417.8" font-family="Times New Roman,serif" font-size="14.00">«JavaScript»</text>
<text text-anchor="middle" x="548" y="-402.8" font-family="Times New Roman,serif" font-size="14.00">website_example/js/s1.js</text>
</g>
<!-- n0&#45;&gt;n7 -->
<g id="edge6" class="edge"><title>n0&#45;&gt;n7</title>
<path fill="none" stroke="black" d="M379.267,-470.992C410.831,-460.518 450.791,-447.258 483.9,-436.271"/>
<polygon fill="black" stroke="black" points="485.101,-439.56 493.49,-433.089 482.896,-432.916 485.101,-439.56"/>
</g>
<!-- n0&#45;&gt;n1 -->
<g id="edge2" class="edge"><title>n0&#45;&gt;n1</title>
<path fill="none" stroke="black" d="M303.407,-470.817C275.44,-446.676 226.018,-401.953 190,-358 156.484,-317.1 124.519,-265.236 104.398,-230.46"/>
<polygon fill="black" stroke="black" points="107.308,-228.498 99.2955,-221.566 101.236,-231.982 107.308,-228.498"/>
</g>
<!-- n3&#45;&gt;n6 -->
<g id="edge12" class="edge"><title>n3&#45;&gt;n6</title>
<path fill="none" stroke="black" d="M358.108,-394.658C341.847,-378.871 318.217,-355.929 300.141,-338.38"/>
<polygon fill="black" stroke="black" points="302.385,-335.68 292.772,-331.225 297.509,-340.702 302.385,-335.68"/>
</g>
<!-- n3&#45;&gt;n2 -->
<g id="edge14" class="edge"><title>n3&#45;&gt;n2</title>
<path fill="none" stroke="black" d="M376.474,-394.548C376.312,-365.876 378.645,-309.413 397,-266 401.234,-255.986 407.191,-246.173 413.689,-237.134"/>
<polygon fill="black" stroke="black" points="416.545,-239.159 419.773,-229.068 410.957,-234.944 416.545,-239.159"/>
</g>
<!-- n5 -->
<g id="node8" class="node"><title>n5</title>
<polygon fill="palegreen" stroke="black" points="405.5,-266.5 405.5,-357.5 592.5,-357.5 592.5,-266.5 405.5,-266.5"/>
<text text-anchor="middle" x="499" y="-342.3" font-family="Times New Roman,serif" font-size="14.00">«CSS»</text>
<text text-anchor="middle" x="499" y="-327.3" font-family="Times New Roman,serif" font-size="14.00">website_example/css/main.css</text>
<polyline fill="none" stroke="black" points="405.5,-319.5 592.5,-319.5 "/>
<text text-anchor="start" x="413.5" y="-304.3" font-family="Times New Roman,serif" font-size="14.00">body</text>
<text text-anchor="start" x="413.5" y="-289.3" font-family="Times New Roman,serif" font-size="14.00">foo</text>
<text text-anchor="start" x="413.5" y="-274.3" font-family="Times New Roman,serif" font-size="14.00">bar</text>
</g>
<!-- n3&#45;&gt;n5 -->
<g id="edge10" class="edge"><title>n3&#45;&gt;n5</title>
<path fill="none" stroke="black" d="M399.093,-394.891C409.77,-386.14 423.175,-375.151 436.668,-364.092"/>
<polygon fill="black" stroke="black" points="439.087,-366.635 444.602,-357.588 434.649,-361.221 439.087,-366.635"/>
</g>
<!-- n10 -->
<g id="node9" class="node"><title>n10</title>
<polygon fill="CornflowerBlue" stroke="black" points="208.5,-1 208.5,-115 339.5,-115 339.5,-1 208.5,-1"/>
<text text-anchor="middle" x="274" y="-99.8" font-family="Times New Roman,serif" font-size="14.00">«JavaScript Object»</text>
<text text-anchor="middle" x="274" y="-84.8" font-family="Times New Roman,serif" font-size="14.00">fooClass</text>
<polyline fill="none" stroke="black" points="208.5,-77 339.5,-77 "/>
<text text-anchor="start" x="216.5" y="-61.8" font-family="Times New Roman,serif" font-size="14.00">varA : string = a</text>
<text text-anchor="start" x="216.5" y="-46.8" font-family="Times New Roman,serif" font-size="14.00">varB : string = b</text>
<polyline fill="none" stroke="black" points="208.5,-39 339.5,-39 "/>
<text text-anchor="start" x="216.5" y="-23.8" font-family="Times New Roman,serif" font-size="14.00">fooFuncA()</text>
<text text-anchor="start" x="216.5" y="-8.8" font-family="Times New Roman,serif" font-size="14.00">fooFuncB()</text>
</g>
<!-- n4&#45;&gt;n10 -->
<g id="edge22" class="edge"><title>n4&#45;&gt;n10</title>
<path fill="none" stroke="black" d="M274,-171.785C274,-159.444 274,-142.306 274,-125.113"/>
<polygon fill="black" stroke="black" points="277.5,-125.019 274,-115.019 270.5,-125.019 277.5,-125.019"/>
</g>
</g>
</svg>
