<?xml version="1.0" encoding="UTF-8" standalone="no"?>
<!DOCTYPE svg PUBLIC "-//W3C//DTD SVG 1.1//EN"
 "http://www.w3.org/Graphics/SVG/1.1/DTD/svg11.dtd">
<!-- Generated by graphviz version 2.28.0 (20110507.0327)
 -->
<!-- Title: G Pages: 1 -->
<svg width="804pt" height="580pt"
 viewBox="0.00 0.00 804.00 580.00" xmlns="http://www.w3.org/2000/svg" xmlns:xlink="http://www.w3.org/1999/xlink">
<g id="graph1" class="graph" transform="scale(1 1) rotate(0) translate(4 576)">
<title>G</title>
<polygon fill="white" stroke="white" points="-4,5 -4,-576 801,-576 801,5 -4,5"/>
<!-- n4 -->
<g id="node1" class="node"><title>n4</title>
<polygon fill="palegreen" stroke="black" points="211.609,-271.715 211.609,-332.715 378.609,-332.715 378.609,-271.715 211.609,-271.715"/>
<text text-anchor="middle" x="295.109" y="-317.515" font-family="Times New Roman,serif" font-size="14.00">«CSS»</text>
<text text-anchor="middle" x="295.109" y="-302.515" font-family="Times New Roman,serif" font-size="14.00">website_example/css/a.css</text>
<polyline fill="none" stroke="black" points="211.609,-294.715 378.609,-294.715 "/>
<text text-anchor="start" x="219.609" y="-279.515" font-family="Times New Roman,serif" font-size="14.00">p</text>
</g>
<!-- n6 -->
<g id="node2" class="node"><title>n6</title>
<polygon fill="palegreen" stroke="black" points="609.061,-480.112 609.061,-571.112 796.061,-571.112 796.061,-480.112 609.061,-480.112"/>
<text text-anchor="middle" x="702.561" y="-555.912" font-family="Times New Roman,serif" font-size="14.00">«CSS»</text>
<text text-anchor="middle" x="702.561" y="-540.912" font-family="Times New Roman,serif" font-size="14.00">website_example/css/main.css</text>
<polyline fill="none" stroke="black" points="609.061,-533.112 796.061,-533.112 "/>
<text text-anchor="start" x="617.061" y="-517.912" font-family="Times New Roman,serif" font-size="14.00">foo</text>
<text text-anchor="start" x="617.061" y="-502.912" font-family="Times New Roman,serif" font-size="14.00">body</text>
<text text-anchor="start" x="617.061" y="-487.912" font-family="Times New Roman,serif" font-size="14.00">bar</text>
</g>
<!-- n1 -->
<g id="node3" class="node"><title>n1</title>
<polygon fill="lavenderblush" stroke="black" points="449.699,-273.303 449.699,-311.303 598.699,-311.303 598.699,-273.303 449.699,-273.303"/>
<text text-anchor="middle" x="524.199" y="-296.103" font-family="Times New Roman,serif" font-size="14.00">«HTML»</text>
<text text-anchor="middle" x="524.199" y="-281.103" font-family="Times New Roman,serif" font-size="14.00">website_example/a.html</text>
</g>
<!-- n1&#45;&gt;n4 -->
<g id="edge10" class="edge"><title>n1&#45;&gt;n4</title>
<path fill="none" stroke="black" d="M449.503,-295.535C430.179,-296.371 409.126,-297.282 388.959,-298.155"/>
<polygon fill="black" stroke="black" points="388.665,-294.664 378.825,-298.593 388.967,-301.657 388.665,-294.664"/>
</g>
<!-- n0 -->
<g id="node4" class="node"><title>n0</title>
<polygon fill="lavenderblush" stroke="black" points="257.029,-224.273 257.029,-262.273 407.029,-262.273 407.029,-224.273 257.029,-224.273"/>
<text text-anchor="middle" x="332.029" y="-247.073" font-family="Times New Roman,serif" font-size="14.00">«HTML»</text>
<text text-anchor="middle" x="332.029" y="-232.073" font-family="Times New Roman,serif" font-size="14.00">website_example/c.html</text>
</g>
<!-- n1&#45;&gt;n0 -->
<g id="edge6" class="edge"><title>n1&#45;&gt;n0</title>
<path fill="none" stroke="black" d="M449.626,-273.277C438.692,-270.487 427.365,-267.597 416.254,-264.762"/>
<polygon fill="black" stroke="black" points="417.115,-261.37 406.56,-262.289 415.384,-268.153 417.115,-261.37"/>
</g>
<!-- n2 -->
<g id="node5" class="node"><title>n2</title>
<polygon fill="lavenderblush" stroke="black" points="451.658,-322.427 451.658,-360.427 602.658,-360.427 602.658,-322.427 451.658,-322.427"/>
<text text-anchor="middle" x="527.158" y="-345.227" font-family="Times New Roman,serif" font-size="14.00">«HTML»</text>
<text text-anchor="middle" x="527.158" y="-330.227" font-family="Times New Roman,serif" font-size="14.00">website_example/b.html</text>
</g>
<!-- n1&#45;&gt;n2 -->
<g id="edge2" class="edge"><title>n1&#45;&gt;n2</title>
<path fill="none" stroke="black" d="M525.351,-311.436C525.365,-311.659 525.378,-311.882 525.392,-312.105"/>
<polygon fill="black" stroke="black" points="521.909,-312.494 526.004,-322.265 528.896,-312.073 521.909,-312.494"/>
</g>
<!-- n3 -->
<g id="node8" class="node"><title>n3</title>
<polygon fill="aliceblue" stroke="black" points="636.683,-151.202 636.683,-189.202 790.683,-189.202 790.683,-151.202 636.683,-151.202"/>
<text text-anchor="middle" x="713.683" y="-174.002" font-family="Times New Roman,serif" font-size="14.00">«JavaScript»</text>
<text text-anchor="middle" x="713.683" y="-159.002" font-family="Times New Roman,serif" font-size="14.00">website_example/js/s1.js</text>
</g>
<!-- n1&#45;&gt;n3 -->
<g id="edge18" class="edge"><title>n1&#45;&gt;n3</title>
<path fill="none" stroke="black" d="M553.806,-273.225C586.527,-252.14 639.337,-218.109 675.233,-194.978"/>
<polygon fill="black" stroke="black" points="677.462,-197.706 683.972,-189.347 673.671,-191.822 677.462,-197.706"/>
</g>
<!-- n0&#45;&gt;n4 -->
<g id="edge8" class="edge"><title>n0&#45;&gt;n4</title>
<path fill="none" stroke="black" d="M319.94,-262.573C319.884,-262.661 319.829,-262.75 319.774,-262.838"/>
<polygon fill="black" stroke="black" points="316.793,-261.004 314.451,-271.336 322.725,-264.72 316.793,-261.004"/>
</g>
<!-- n7 -->
<g id="node6" class="node"><title>n7</title>
<polygon fill="aliceblue" stroke="black" points="393.918,-369.662 393.918,-445.662 540.918,-445.662 540.918,-369.662 393.918,-369.662"/>
<text text-anchor="middle" x="467.418" y="-430.462" font-family="Times New Roman,serif" font-size="14.00">«JavaScript»</text>
<text text-anchor="middle" x="467.418" y="-415.462" font-family="Times New Roman,serif" font-size="14.00">website_example/js/s.js</text>
<polyline fill="none" stroke="black" points="393.918,-407.662 540.918,-407.662 "/>
<text text-anchor="start" x="401.918" y="-392.462" font-family="Times New Roman,serif" font-size="14.00">barFunc()</text>
<text text-anchor="start" x="401.918" y="-377.462" font-family="Times New Roman,serif" font-size="14.00">barFuncB()</text>
</g>
<!-- n0&#45;&gt;n7 -->
<g id="edge14" class="edge"><title>n0&#45;&gt;n7</title>
<path fill="none" stroke="black" d="M374.431,-262.606C377.039,-264.445 379.528,-266.415 381.809,-268.515 409.671,-294.175 431.761,-330.93 446.519,-360.221"/>
<polygon fill="black" stroke="black" points="443.5,-362.013 451.051,-369.445 449.783,-358.927 443.5,-362.013"/>
</g>
<!-- n5 -->
<g id="node7" class="node"><title>n5</title>
<polygon fill="aliceblue" stroke="black" points="182.321,-175.462 182.321,-213.462 360.321,-213.462 360.321,-175.462 182.321,-175.462"/>
<text text-anchor="middle" x="271.321" y="-198.262" font-family="Times New Roman,serif" font-size="14.00">«JavaScript»</text>
<text text-anchor="middle" x="271.321" y="-183.262" font-family="Times New Roman,serif" font-size="14.00">website_example/js/sClass.js</text>
</g>
<!-- n0&#45;&gt;n5 -->
<g id="edge16" class="edge"><title>n0&#45;&gt;n5</title>
<path fill="none" stroke="black" d="M308.383,-224.262C306.598,-222.826 304.78,-221.365 302.956,-219.898"/>
<polygon fill="black" stroke="black" points="304.988,-217.04 295.001,-213.502 300.601,-222.496 304.988,-217.04"/>
</g>
<!-- n2&#45;&gt;n6 -->
<g id="edge12" class="edge"><title>n2&#45;&gt;n6</title>
<path fill="none" stroke="black" d="M545.268,-360.444C570.214,-386.639 616.125,-434.849 651.932,-472.448"/>
<polygon fill="black" stroke="black" points="649.518,-474.989 658.949,-479.817 654.587,-470.161 649.518,-474.989"/>
</g>
<!-- n2&#45;&gt;n0 -->
<g id="edge4" class="edge"><title>n2&#45;&gt;n0</title>
<path fill="none" stroke="black" d="M463.888,-322.327C457.912,-319.923 452.027,-317.312 446.499,-314.503 415.05,-298.524 411.999,-286.762 381.809,-268.515 381.156,-268.12 380.496,-267.726 379.83,-267.332"/>
<polygon fill="black" stroke="black" points="381.352,-264.173 370.927,-262.287 377.901,-270.262 381.352,-264.173"/>
</g>
<!-- n2&#45;&gt;n7 -->
<g id="edge20" class="edge"><title>n2&#45;&gt;n7</title>
<path fill="none" stroke="black" d="M509.878,-360.585C509.568,-360.929 509.256,-361.275 508.941,-361.624"/>
<polygon fill="black" stroke="black" points="506.197,-359.441 502.098,-369.211 511.395,-364.129 506.197,-359.441"/>
</g>
<!-- n8 -->
<g id="node9" class="node"><title>n8</title>
<polygon fill="CornflowerBlue" stroke="black" points="-0.052821,-0.776768 -0.052821,-114.777 130.947,-114.777 130.947,-0.776768 -0.052821,-0.776768"/>
<text text-anchor="middle" x="65.4472" y="-99.5768" font-family="Times New Roman,serif" font-size="14.00">«JavaScript Object»</text>
<text text-anchor="middle" x="65.4472" y="-84.5768" font-family="Times New Roman,serif" font-size="14.00">fooClass</text>
<polyline fill="none" stroke="black" points="-0.052821,-76.7768 130.947,-76.7768 "/>
<text text-anchor="start" x="7.94718" y="-61.5768" font-family="Times New Roman,serif" font-size="14.00">string varA:a</text>
<text text-anchor="start" x="7.94718" y="-46.5768" font-family="Times New Roman,serif" font-size="14.00">string varB:b</text>
<polyline fill="none" stroke="black" points="-0.052821,-38.7768 130.947,-38.7768 "/>
<text text-anchor="start" x="7.94718" y="-23.5768" font-family="Times New Roman,serif" font-size="14.00">fooFuncA()</text>
<text text-anchor="start" x="7.94718" y="-8.57677" font-family="Times New Roman,serif" font-size="14.00">fooFuncB()</text>
</g>
<!-- n5&#45;&gt;n8 -->
<g id="edge22" class="edge"><title>n5&#45;&gt;n8</title>
<path fill="none" stroke="black" d="M242.695,-175.456C216.101,-157.8 175.337,-130.736 139.604,-107.012"/>
<polygon fill="black" stroke="black" points="141.384,-103.992 131.117,-101.377 137.513,-109.824 141.384,-103.992"/>
</g>
</g>
</svg>
