<?xml version="1.0" encoding="UTF-8" standalone="no"?>
<!DOCTYPE svg PUBLIC "-//W3C//DTD SVG 1.1//EN"
 "http://www.w3.org/Graphics/SVG/1.1/DTD/svg11.dtd">
<!-- Generated by graphviz version 2.28.0 (20110507.0327)
 -->
<!-- Title: G Pages: 1 -->
<svg width="653pt" height="824pt"
 viewBox="0.00 0.00 653.00 824.00" xmlns="http://www.w3.org/2000/svg" xmlns:xlink="http://www.w3.org/1999/xlink">
<g id="graph1" class="graph" transform="scale(1 1) rotate(0) translate(4 820)">
<title>G</title>
<polygon fill="white" stroke="white" points="-4,5 -4,-820 650,-820 650,5 -4,5"/>
<g id="graph2" class="cluster"><title>cluster_7</title>
<polygon fill="#e5e5e5" stroke="#474747" points="162.474,-661.81 162.474,-815.81 385.474,-815.81 385.474,-661.81 162.474,-661.81"/>
<text text-anchor="middle" x="273.974" y="-800.61" font-family="Times New Roman,serif" font-size="14.00">[inside website_example/js/sClass.js]</text>
</g>
<!-- n10 -->
<g id="node2" class="node"><title>n10</title>
<polygon fill="CornflowerBlue" stroke="black" points="208.086,-669.871 208.086,-783.871 339.086,-783.871 339.086,-669.871 208.086,-669.871"/>
<text text-anchor="middle" x="273.586" y="-768.671" font-family="Times New Roman,serif" font-size="14.00">«JavaScript Object»</text>
<text text-anchor="middle" x="273.586" y="-753.671" font-family="Times New Roman,serif" font-size="14.00">fooClass</text>
<polyline fill="none" stroke="black" points="208.086,-745.871 339.086,-745.871 "/>
<text text-anchor="start" x="216.086" y="-730.671" font-family="Times New Roman,serif" font-size="14.00">string varB: b</text>
<text text-anchor="start" x="216.086" y="-715.671" font-family="Times New Roman,serif" font-size="14.00">string varA: a</text>
<polyline fill="none" stroke="black" points="208.086,-707.871 339.086,-707.871 "/>
<text text-anchor="start" x="216.086" y="-692.671" font-family="Times New Roman,serif" font-size="14.00">fooFuncA()</text>
<text text-anchor="start" x="216.086" y="-677.671" font-family="Times New Roman,serif" font-size="14.00">fooFuncB()</text>
</g>
<!-- n5 -->
<g id="node3" class="node"><title>n5</title>
<polygon fill="lavenderblush" stroke="black" points="241.451,-142.457 241.451,-180.457 392.451,-180.457 392.451,-142.457 241.451,-142.457"/>
<text text-anchor="middle" x="316.951" y="-165.257" font-family="Times New Roman,serif" font-size="14.00">«HTML»</text>
<text text-anchor="middle" x="316.951" y="-150.257" font-family="Times New Roman,serif" font-size="14.00">website_example/b.html</text>
</g>
<!-- n6 -->
<g id="node5" class="node"><title>n6</title>
<polygon fill="lavenderblush" stroke="black" points="129.272,-247.311 129.272,-285.311 279.272,-285.311 279.272,-247.311 129.272,-247.311"/>
<text text-anchor="middle" x="204.272" y="-270.111" font-family="Times New Roman,serif" font-size="14.00">«HTML»</text>
<text text-anchor="middle" x="204.272" y="-255.111" font-family="Times New Roman,serif" font-size="14.00">website_example/c.html</text>
</g>
<!-- n5&#45;&gt;n6 -->
<g id="edge3" class="edge"><title>n5&#45;&gt;n6</title>
<path fill="none" stroke="black" d="M296.284,-180.689C278.336,-197.391 252.182,-221.728 232.342,-240.191"/>
<polygon fill="black" stroke="black" points="229.745,-237.826 224.808,-247.201 234.513,-242.951 229.745,-237.826"/>
</g>
<!-- n2 -->
<g id="node8" class="node"><title>n2</title>
<polygon fill="palegreen" stroke="black" points="457.798,-61.4735 457.798,-152.474 644.798,-152.474 644.798,-61.4735 457.798,-61.4735"/>
<text text-anchor="middle" x="551.298" y="-137.274" font-family="Times New Roman,serif" font-size="14.00">«CSS»</text>
<text text-anchor="middle" x="551.298" y="-122.274" font-family="Times New Roman,serif" font-size="14.00">website_example/css/main.css</text>
<polyline fill="none" stroke="black" points="457.798,-114.474 644.798,-114.474 "/>
<text text-anchor="start" x="465.798" y="-99.2735" font-family="Times New Roman,serif" font-size="14.00">foo</text>
<text text-anchor="start" x="465.798" y="-84.2735" font-family="Times New Roman,serif" font-size="14.00">body</text>
<text text-anchor="start" x="465.798" y="-69.2735" font-family="Times New Roman,serif" font-size="14.00">bar</text>
</g>
<!-- n5&#45;&gt;n2 -->
<g id="edge7" class="edge"><title>n5&#45;&gt;n2</title>
<path fill="none" stroke="black" d="M392.713,-143.843C410.283,-139.758 429.279,-135.342 447.811,-131.033"/>
<polygon fill="black" stroke="black" points="448.8,-134.397 457.747,-128.723 447.215,-127.579 448.8,-134.397"/>
</g>
<!-- n3 -->
<g id="node10" class="node"><title>n3</title>
<polygon fill="aliceblue" stroke="black" points="0.124624,-124.016 0.124624,-200.016 147.125,-200.016 147.125,-124.016 0.124624,-124.016"/>
<text text-anchor="middle" x="73.6246" y="-184.816" font-family="Times New Roman,serif" font-size="14.00">«JavaScript»</text>
<text text-anchor="middle" x="73.6246" y="-169.816" font-family="Times New Roman,serif" font-size="14.00">website_example/js/s.js</text>
<polyline fill="none" stroke="black" points="0.124624,-162.016 147.125,-162.016 "/>
<text text-anchor="start" x="8.12462" y="-146.816" font-family="Times New Roman,serif" font-size="14.00">barFunc()</text>
<text text-anchor="start" x="8.12462" y="-131.816" font-family="Times New Roman,serif" font-size="14.00">barFuncB()</text>
</g>
<!-- n5&#45;&gt;n3 -->
<g id="edge5" class="edge"><title>n5&#45;&gt;n3</title>
<path fill="none" stroke="black" d="M241.295,-161.631C214.698,-161.692 184.661,-161.761 157.434,-161.824"/>
<polygon fill="black" stroke="black" points="157.141,-158.324 147.149,-161.847 157.157,-165.324 157.141,-158.324"/>
</g>
<!-- n0 -->
<g id="node4" class="node"><title>n0</title>
<polygon fill="lavenderblush" stroke="black" points="265.412,-294.311 265.412,-332.311 414.412,-332.311 414.412,-294.311 265.412,-294.311"/>
<text text-anchor="middle" x="339.912" y="-317.111" font-family="Times New Roman,serif" font-size="14.00">«HTML»</text>
<text text-anchor="middle" x="339.912" y="-302.111" font-family="Times New Roman,serif" font-size="14.00">website_example/a.html</text>
</g>
<!-- n0&#45;&gt;n5 -->
<g id="edge23" class="edge"><title>n0&#45;&gt;n5</title>
<path fill="none" stroke="black" d="M337.004,-294.078C333.053,-267.949 325.955,-221.008 321.351,-190.556"/>
<polygon fill="black" stroke="black" points="324.791,-189.898 319.835,-180.533 317.87,-190.944 324.791,-189.898"/>
</g>
<!-- n0&#45;&gt;n6 -->
<g id="edge15" class="edge"><title>n0&#45;&gt;n6</title>
<path fill="none" stroke="black" d="M284.742,-294.194C279.516,-292.383 274.187,-290.537 268.883,-288.699"/>
<polygon fill="black" stroke="black" points="269.988,-285.378 259.393,-285.411 267.696,-291.992 269.988,-285.378"/>
</g>
<!-- n4 -->
<g id="node7" class="node"><title>n4</title>
<polygon fill="aliceblue" stroke="black" points="25.7869,-436.243 25.7869,-474.243 179.787,-474.243 179.787,-436.243 25.7869,-436.243"/>
<text text-anchor="middle" x="102.787" y="-459.043" font-family="Times New Roman,serif" font-size="14.00">«JavaScript»</text>
<text text-anchor="middle" x="102.787" y="-444.043" font-family="Times New Roman,serif" font-size="14.00">website_example/js/s1.js</text>
</g>
<!-- n0&#45;&gt;n4 -->
<g id="edge19" class="edge"><title>n0&#45;&gt;n4</title>
<path fill="none" stroke="black" d="M307.932,-332.452C265.297,-357.972 189.816,-403.151 143.262,-431.016"/>
<polygon fill="black" stroke="black" points="141.421,-428.039 134.638,-436.178 145.016,-434.046 141.421,-428.039"/>
</g>
<!-- n1 -->
<g id="node9" class="node"><title>n1</title>
<polygon fill="palegreen" stroke="black" points="170.309,-0.343078 170.309,-61.3431 337.309,-61.3431 337.309,-0.343078 170.309,-0.343078"/>
<text text-anchor="middle" x="253.809" y="-46.1431" font-family="Times New Roman,serif" font-size="14.00">«CSS»</text>
<text text-anchor="middle" x="253.809" y="-31.1431" font-family="Times New Roman,serif" font-size="14.00">website_example/css/a.css</text>
<polyline fill="none" stroke="black" points="170.309,-23.3431 337.309,-23.3431 "/>
<text text-anchor="start" x="178.309" y="-8.14308" font-family="Times New Roman,serif" font-size="14.00">p</text>
</g>
<!-- n0&#45;&gt;n1 -->
<g id="edge21" class="edge"><title>n0&#45;&gt;n1</title>
<path fill="none" stroke="black" d="M323.791,-294.203C296.254,-261.355 242.674,-196.466 238.251,-183.657 225.606,-147.037 232.323,-102.767 240.499,-71.3231"/>
<polygon fill="black" stroke="black" points="243.899,-72.1611 243.182,-61.5906 237.15,-70.3007 243.899,-72.1611"/>
</g>
<!-- n7 -->
<g id="node6" class="node"><title>n7</title>
<polygon fill="aliceblue" stroke="black" points="235.991,-534.277 235.991,-572.277 413.991,-572.277 413.991,-534.277 235.991,-534.277"/>
<text text-anchor="middle" x="324.991" y="-557.077" font-family="Times New Roman,serif" font-size="14.00">«JavaScript»</text>
<text text-anchor="middle" x="324.991" y="-542.077" font-family="Times New Roman,serif" font-size="14.00">website_example/js/sClass.js</text>
</g>
<!-- n6&#45;&gt;n7 -->
<g id="edge9" class="edge"><title>n6&#45;&gt;n7</title>
<path fill="none" stroke="black" d="M212.381,-285.585C233.169,-335.004 288.456,-466.427 312.983,-524.732"/>
<polygon fill="black" stroke="black" points="309.814,-526.226 316.918,-534.087 316.266,-523.512 309.814,-526.226"/>
</g>
<!-- n6&#45;&gt;n1 -->
<g id="edge13" class="edge"><title>n6&#45;&gt;n1</title>
<path fill="none" stroke="black" d="M208.326,-247.042C216.346,-208.918 234.395,-123.128 245.189,-71.8173"/>
<polygon fill="black" stroke="black" points="248.677,-72.2367 247.311,-61.7303 241.827,-70.7956 248.677,-72.2367"/>
</g>
<!-- n6&#45;&gt;n3 -->
<g id="edge17" class="edge"><title>n6&#45;&gt;n3</title>
<path fill="none" stroke="black" d="M180.31,-247.182C166,-235.758 147.192,-220.744 129.359,-206.508"/>
<polygon fill="black" stroke="black" points="131.252,-203.541 121.254,-200.038 126.885,-209.012 131.252,-203.541"/>
</g>
<!-- n7&#45;&gt;n10 -->
<g id="edge11" class="edge"><title>n7&#45;&gt;n10</title>
<path fill="none" stroke="black" d="M319.293,-572.518C313.039,-593.638 302.649,-628.724 293.355,-660.111"/>
<polygon fill="black" stroke="black" points="289.995,-659.132 290.511,-669.714 296.707,-661.119 289.995,-659.132"/>
</g>
</g>
</svg>
