<?xml version="1.0" encoding="UTF-8" standalone="no"?>
<!DOCTYPE svg PUBLIC "-//W3C//DTD SVG 1.1//EN"
 "http://www.w3.org/Graphics/SVG/1.1/DTD/svg11.dtd">
<!-- Generated by graphviz version 2.28.0 (20110507.0327)
 -->
<!-- Title: G Pages: 1 -->
<svg width="635pt" height="468pt"
 viewBox="0.00 0.00 635.00 468.00" xmlns="http://www.w3.org/2000/svg" xmlns:xlink="http://www.w3.org/1999/xlink">
<g id="graph1" class="graph" transform="scale(1 1) rotate(0) translate(4 464)">
<title>G</title>
<polygon fill="white" stroke="white" points="-4,5 -4,-464 632,-464 632,5 -4,5"/>
<!-- n6 -->
<g id="node1" class="node"><title>n6</title>
<polygon fill="palegreen" stroke="black" points="0.235029,-386.983 0.235029,-447.983 167.235,-447.983 167.235,-386.983 0.235029,-386.983"/>
<text text-anchor="middle" x="83.735" y="-432.783" font-family="Times New Roman,serif" font-size="14.00">«CSS»</text>
<text text-anchor="middle" x="83.735" y="-417.783" font-family="Times New Roman,serif" font-size="14.00">website_example/css/a.css</text>
<polyline fill="none" stroke="black" points="0.235029,-409.983 167.235,-409.983 "/>
<text text-anchor="start" x="8.23503" y="-394.783" font-family="Times New Roman,serif" font-size="14.00">p</text>
</g>
<!-- n7 -->
<g id="node2" class="node"><title>n7</title>
<polygon fill="palegreen" stroke="black" points="228.981,-124.24 228.981,-215.24 415.981,-215.24 415.981,-124.24 228.981,-124.24"/>
<text text-anchor="middle" x="322.481" y="-200.04" font-family="Times New Roman,serif" font-size="14.00">«CSS»</text>
<text text-anchor="middle" x="322.481" y="-185.04" font-family="Times New Roman,serif" font-size="14.00">website_example/css/main.css</text>
<polyline fill="none" stroke="black" points="228.981,-177.24 415.981,-177.24 "/>
<text text-anchor="start" x="236.981" y="-162.04" font-family="Times New Roman,serif" font-size="14.00">body</text>
<text text-anchor="start" x="236.981" y="-147.04" font-family="Times New Roman,serif" font-size="14.00">foo</text>
<text text-anchor="start" x="236.981" y="-132.04" font-family="Times New Roman,serif" font-size="14.00">bar</text>
</g>
<!-- n0 -->
<g id="node3" class="node"><title>n0</title>
<polygon fill="lavenderblush" stroke="black" points="213.452,-371.712 213.452,-409.712 362.452,-409.712 362.452,-371.712 213.452,-371.712"/>
<text text-anchor="middle" x="287.952" y="-394.512" font-family="Times New Roman,serif" font-size="14.00">«HTML»</text>
<text text-anchor="middle" x="287.952" y="-379.512" font-family="Times New Roman,serif" font-size="14.00">website_example/a.html</text>
</g>
<!-- n0&#45;&gt;n6 -->
<g id="edge8" class="edge"><title>n0&#45;&gt;n6</title>
<path fill="none" stroke="black" d="M213.358,-400.49C201.697,-402.019 189.518,-403.615 177.495,-405.191"/>
<polygon fill="black" stroke="black" points="176.908,-401.738 167.447,-406.509 177.818,-408.679 176.908,-401.738"/>
</g>
<!-- n4 -->
<g id="node4" class="node"><title>n4</title>
<polygon fill="lavenderblush" stroke="black" points="395.977,-365.503 395.977,-403.503 546.977,-403.503 546.977,-365.503 395.977,-365.503"/>
<text text-anchor="middle" x="471.477" y="-388.303" font-family="Times New Roman,serif" font-size="14.00">«HTML»</text>
<text text-anchor="middle" x="471.477" y="-373.303" font-family="Times New Roman,serif" font-size="14.00">website_example/b.html</text>
</g>
<!-- n0&#45;&gt;n4 -->
<g id="edge2" class="edge"><title>n0&#45;&gt;n4</title>
<path fill="none" stroke="black" d="M362.598,-388.186C370.189,-387.93 377.941,-387.667 385.637,-387.407"/>
<polygon fill="black" stroke="black" points="385.829,-390.903 395.704,-387.066 385.592,-383.907 385.829,-390.903"/>
</g>
<!-- n1 -->
<g id="node5" class="node"><title>n1</title>
<polygon fill="lavenderblush" stroke="black" points="236.804,-324.438 236.804,-362.438 386.804,-362.438 386.804,-324.438 236.804,-324.438"/>
<text text-anchor="middle" x="311.804" y="-347.238" font-family="Times New Roman,serif" font-size="14.00">«HTML»</text>
<text text-anchor="middle" x="311.804" y="-332.238" font-family="Times New Roman,serif" font-size="14.00">website_example/c.html</text>
</g>
<!-- n0&#45;&gt;n1 -->
<g id="edge6" class="edge"><title>n0&#45;&gt;n1</title>
<path fill="none" stroke="black" d="M297.653,-371.483C297.7,-371.391 297.747,-371.298 297.793,-371.205"/>
<polygon fill="black" stroke="black" points="300.808,-373 302.188,-362.495 294.559,-369.847 300.808,-373"/>
</g>
<!-- n2 -->
<g id="node6" class="node"><title>n2</title>
<polygon fill="aliceblue" stroke="black" points="193.193,-421.21 193.193,-459.21 347.193,-459.21 347.193,-421.21 193.193,-421.21"/>
<text text-anchor="middle" x="270.193" y="-444.01" font-family="Times New Roman,serif" font-size="14.00">«JavaScript»</text>
<text text-anchor="middle" x="270.193" y="-429.01" font-family="Times New Roman,serif" font-size="14.00">website_example/js/s1.js</text>
</g>
<!-- n0&#45;&gt;n2 -->
<g id="edge14" class="edge"><title>n0&#45;&gt;n2</title>
<path fill="none" stroke="black" d="M281.035,-409.991C280.874,-410.439 280.713,-410.889 280.55,-411.341"/>
<polygon fill="black" stroke="black" points="277.203,-410.308 277.12,-420.902 283.792,-412.672 277.203,-410.308"/>
</g>
<!-- n4&#45;&gt;n7 -->
<g id="edge10" class="edge"><title>n4&#45;&gt;n7</title>
<path fill="none" stroke="black" d="M465.693,-365.14C458.197,-341.854 443.671,-302.174 423.61,-272.267 411.881,-254.78 396.924,-237.703 382.133,-222.658"/>
<polygon fill="black" stroke="black" points="384.451,-220.027 374.9,-215.443 379.508,-224.983 384.451,-220.027"/>
</g>
<!-- n4&#45;&gt;n1 -->
<g id="edge4" class="edge"><title>n4&#45;&gt;n1</title>
<path fill="none" stroke="black" d="M397.25,-365.413C396.782,-365.293 396.313,-365.172 395.844,-365.051"/>
<polygon fill="black" stroke="black" points="396.551,-361.619 385.995,-362.518 394.808,-368.399 396.551,-361.619"/>
</g>
<!-- n3 -->
<g id="node7" class="node"><title>n3</title>
<polygon fill="aliceblue" stroke="black" points="480.213,-280.286 480.213,-356.286 627.213,-356.286 627.213,-280.286 480.213,-280.286"/>
<text text-anchor="middle" x="553.713" y="-341.086" font-family="Times New Roman,serif" font-size="14.00">«JavaScript»</text>
<text text-anchor="middle" x="553.713" y="-326.086" font-family="Times New Roman,serif" font-size="14.00">website_example/js/s.js</text>
<polyline fill="none" stroke="black" points="480.213,-318.286 627.213,-318.286 "/>
<text text-anchor="start" x="488.213" y="-303.086" font-family="Times New Roman,serif" font-size="14.00">barFunc()</text>
<text text-anchor="start" x="488.213" y="-288.086" font-family="Times New Roman,serif" font-size="14.00">barFuncB()</text>
</g>
<!-- n4&#45;&gt;n3 -->
<g id="edge16" class="edge"><title>n4&#45;&gt;n3</title>
<path fill="none" stroke="black" d="M495.263,-365.35C496.25,-364.556 497.254,-363.747 498.271,-362.929"/>
<polygon fill="black" stroke="black" points="500.686,-365.478 506.28,-356.48 496.296,-360.025 500.686,-365.478"/>
</g>
<!-- n1&#45;&gt;n6 -->
<g id="edge12" class="edge"><title>n1&#45;&gt;n6</title>
<path fill="none" stroke="black" d="M236.634,-360.855C227.695,-363.262 218.737,-365.834 210.252,-368.512 196.382,-372.889 181.842,-378.003 167.763,-383.245"/>
<polygon fill="black" stroke="black" points="166.225,-380.084 158.103,-386.887 168.695,-386.634 166.225,-380.084"/>
</g>
<!-- n1&#45;&gt;n3 -->
<g id="edge18" class="edge"><title>n1&#45;&gt;n3</title>
<path fill="none" stroke="black" d="M387.019,-335.617C413.338,-332.881 443.045,-329.792 470.014,-326.989"/>
<polygon fill="black" stroke="black" points="470.619,-330.445 480.203,-325.929 469.895,-323.482 470.619,-330.445"/>
</g>
<!-- n5 -->
<g id="node8" class="node"><title>n5</title>
<polygon fill="aliceblue" stroke="black" points="242.41,-275.467 242.41,-313.467 420.41,-313.467 420.41,-275.467 242.41,-275.467"/>
<text text-anchor="middle" x="331.41" y="-298.267" font-family="Times New Roman,serif" font-size="14.00">«JavaScript»</text>
<text text-anchor="middle" x="331.41" y="-283.267" font-family="Times New Roman,serif" font-size="14.00">website_example/js/sClass.js</text>
</g>
<!-- n1&#45;&gt;n5 -->
<g id="edge20" class="edge"><title>n1&#45;&gt;n5</title>
<path fill="none" stroke="black" d="M319.44,-324.364C319.618,-323.921 319.796,-323.475 319.975,-323.028"/>
<polygon fill="black" stroke="black" points="323.295,-324.153 323.762,-313.569 316.796,-321.551 323.295,-324.153"/>
</g>
<!-- n8 -->
<g id="node9" class="node"><title>n8</title>
<polygon fill="CornflowerBlue" stroke="black" points="369.679,-0.754967 369.679,-114.755 500.679,-114.755 500.679,-0.754967 369.679,-0.754967"/>
<text text-anchor="middle" x="435.179" y="-99.555" font-family="Times New Roman,serif" font-size="14.00">«JavaScript Object»</text>
<text text-anchor="middle" x="435.179" y="-84.555" font-family="Times New Roman,serif" font-size="14.00">fooClass</text>
<polyline fill="none" stroke="black" points="369.679,-76.755 500.679,-76.755 "/>
<text text-anchor="start" x="377.679" y="-61.555" font-family="Times New Roman,serif" font-size="14.00">string varA:a</text>
<text text-anchor="start" x="377.679" y="-46.555" font-family="Times New Roman,serif" font-size="14.00">string varB:b</text>
<polyline fill="none" stroke="black" points="369.679,-38.755 500.679,-38.755 "/>
<text text-anchor="start" x="377.679" y="-23.555" font-family="Times New Roman,serif" font-size="14.00">fooFuncA()</text>
<text text-anchor="start" x="377.679" y="-8.55497" font-family="Times New Roman,serif" font-size="14.00">fooFuncB()</text>
</g>
<!-- n5&#45;&gt;n8 -->
<g id="edge22" class="edge"><title>n5&#45;&gt;n8</title>
<path fill="none" stroke="black" d="M363.744,-275.466C383.286,-262.131 406.752,-242.425 419.181,-218.44 433.834,-190.162 438.633,-155.338 439.437,-125.347"/>
<polygon fill="black" stroke="black" points="442.942,-125.001 439.565,-114.958 435.942,-124.915 442.942,-125.001"/>
</g>
</g>
</svg>
