<?xml version="1.0" encoding="UTF-8" standalone="no"?>
<!DOCTYPE svg PUBLIC "-//W3C//DTD SVG 1.1//EN"
 "http://www.w3.org/Graphics/SVG/1.1/DTD/svg11.dtd">
<!-- Generated by graphviz version 2.38.0 (20140413.2041)
 -->
<!-- Title: G Pages: 1 -->
<svg width="904pt" height="579pt"
 viewBox="0.00 0.00 904.22 579.27" xmlns="http://www.w3.org/2000/svg" xmlns:xlink="http://www.w3.org/1999/xlink">
<g id="graph0" class="graph" transform="scale(1 1) rotate(0) translate(4 575.267)">
<title>G</title>
<polygon fill="white" stroke="none" points="-4,4 -4,-575.267 900.224,-575.267 900.224,4 -4,4"/>
<!-- n0 -->
<g id="node1" class="node"><title>n0</title>
<polygon fill="lavenderblush" stroke="black" points="390.359,-267.188 390.359,-305.188 539.359,-305.188 539.359,-267.188 390.359,-267.188"/>
<text text-anchor="middle" x="464.859" y="-289.988" font-family="Times New Roman,serif" font-size="14.00">«HTML»</text>
<text text-anchor="middle" x="464.859" y="-274.988" font-family="Times New Roman,serif" font-size="14.00">website_example/a.html</text>
</g>
<!-- n3 -->
<g id="node2" class="node"><title>n3</title>
<polygon fill="palegreen" stroke="black" points="394.803,-80.5425 394.803,-141.542 561.803,-141.542 561.803,-80.5425 394.803,-80.5425"/>
<text text-anchor="middle" x="478.303" y="-126.342" font-family="Times New Roman,serif" font-size="14.00">«CSS»</text>
<text text-anchor="middle" x="478.303" y="-111.342" font-family="Times New Roman,serif" font-size="14.00">website_example/css/a.css</text>
<polyline fill="none" stroke="black" points="394.803,-103.542 561.803,-103.542 "/>
<text text-anchor="start" x="402.803" y="-88.3425" font-family="Times New Roman,serif" font-size="14.00">p</text>
</g>
<!-- n0&#45;&gt;n3 -->
<g id="edge1" class="edge"><title>n0&#45;&gt;n3</title>
<path fill="none" stroke="black" d="M468.948,-254.822C477.689,-187.472 479.818,-167.645 479.433,-141.954"/>
<polygon fill="black" stroke="black" points="468.912,-255.099 472.105,-261.565 467.364,-266.999 464.172,-260.533 468.912,-255.099"/>
</g>
<!-- n1 -->
<g id="node5" class="node"><title>n1</title>
<polygon fill="lavenderblush" stroke="black" points="581.575,-349.103 581.575,-387.103 732.575,-387.103 732.575,-349.103 581.575,-349.103"/>
<text text-anchor="middle" x="657.075" y="-371.903" font-family="Times New Roman,serif" font-size="14.00">«HTML»</text>
<text text-anchor="middle" x="657.075" y="-356.903" font-family="Times New Roman,serif" font-size="14.00">website_example/b.html</text>
</g>
<!-- n0&#45;&gt;n1 -->
<g id="edge2" class="edge"><title>n0&#45;&gt;n1</title>
<path fill="none" stroke="black" d="M522.663,-309.86C573.043,-330.527 594.581,-339.544 615.786,-349.06"/>
<polygon fill="black" stroke="black" points="522.567,-309.821 515.498,-311.246 511.464,-305.269 518.533,-303.844 522.567,-309.821"/>
</g>
<!-- n2 -->
<g id="node7" class="node"><title>n2</title>
<polygon fill="lavenderblush" stroke="black" points="569.62,-174.235 569.62,-212.235 719.62,-212.235 719.62,-174.235 569.62,-174.235"/>
<text text-anchor="middle" x="644.62" y="-197.035" font-family="Times New Roman,serif" font-size="14.00">«HTML»</text>
<text text-anchor="middle" x="644.62" y="-182.035" font-family="Times New Roman,serif" font-size="14.00">website_example/c.html</text>
</g>
<!-- n0&#45;&gt;n2 -->
<g id="edge3" class="edge"><title>n0&#45;&gt;n2</title>
<path fill="none" stroke="black" d="M514.669,-261.675C569.118,-234.835 589.058,-224.727 611.095,-212.423"/>
<polygon fill="black" stroke="black" points="514.467,-261.775 510.852,-268.015 503.702,-267.078 507.317,-260.838 514.467,-261.775"/>
</g>
<!-- n6 -->
<g id="node9" class="node"><title>n6</title>
<polygon fill="aliceblue" stroke="black" points="166.733,-299.814 166.733,-337.814 320.733,-337.814 320.733,-299.814 166.733,-299.814"/>
<text text-anchor="middle" x="243.733" y="-322.614" font-family="Times New Roman,serif" font-size="14.00">«JavaScript»</text>
<text text-anchor="middle" x="243.733" y="-307.614" font-family="Times New Roman,serif" font-size="14.00">website_example/js/s1.js</text>
</g>
<!-- n0&#45;&gt;n6 -->
<g id="edge4" class="edge"><title>n0&#45;&gt;n6</title>
<path fill="none" stroke="black" d="M378.285,-299.729C353.207,-303.63 335.431,-306.351 320.742,-308.516"/>
<polygon fill="black" stroke="black" points="378.479,-299.699 383.792,-294.824 390.336,-297.852 385.024,-302.728 378.479,-299.699"/>
</g>
<!-- n16 -->
<g id="node3" class="node"><title>n16</title>
<polygon fill="azure" stroke="black" points="2.84217e-014,-256.148 2.84217e-014,-294.148 137,-294.148 137,-256.148 2.84217e-014,-256.148"/>
<text text-anchor="middle" x="68.5" y="-278.948" font-family="Times New Roman,serif" font-size="14.00">«JavaScript Require»</text>
<text text-anchor="middle" x="68.5" y="-263.948" font-family="Times New Roman,serif" font-size="14.00">data/data.json</text>
</g>
<!-- n4 -->
<g id="node4" class="node"><title>n4</title>
<polygon fill="palegreen" stroke="black" points="644.887,-479.767 644.887,-570.767 831.887,-570.767 831.887,-479.767 644.887,-479.767"/>
<text text-anchor="middle" x="738.387" y="-555.567" font-family="Times New Roman,serif" font-size="14.00">«CSS»</text>
<text text-anchor="middle" x="738.387" y="-540.567" font-family="Times New Roman,serif" font-size="14.00">website_example/css/main.css</text>
<polyline fill="none" stroke="black" points="644.887,-532.767 831.887,-532.767 "/>
<text text-anchor="start" x="652.887" y="-517.567" font-family="Times New Roman,serif" font-size="14.00">bar</text>
<text text-anchor="start" x="652.887" y="-502.567" font-family="Times New Roman,serif" font-size="14.00">body</text>
<text text-anchor="start" x="652.887" y="-487.567" font-family="Times New Roman,serif" font-size="14.00">foo</text>
</g>
<!-- n1&#45;&gt;n4 -->
<g id="edge5" class="edge"><title>n1&#45;&gt;n4</title>
<path fill="none" stroke="black" d="M678.03,-397.267C708.972,-440.545 721.021,-459.094 728.068,-479.763"/>
<polygon fill="black" stroke="black" points="677.899,-397.084 671.152,-394.538 670.908,-387.331 677.655,-389.877 677.899,-397.084"/>
</g>
<!-- n7 -->
<g id="node6" class="node"><title>n7</title>
<polygon fill="aliceblue" stroke="black" points="740.224,-226.095 740.224,-340.095 896.224,-340.095 896.224,-226.095 740.224,-226.095"/>
<text text-anchor="middle" x="818.224" y="-324.895" font-family="Times New Roman,serif" font-size="14.00">«JavaScript»</text>
<text text-anchor="middle" x="818.224" y="-309.895" font-family="Times New Roman,serif" font-size="14.00">website_example/js/s.js</text>
<polyline fill="none" stroke="black" points="740.224,-302.095 896.224,-302.095 "/>
<text text-anchor="start" x="748.224" y="-286.895" font-family="Times New Roman,serif" font-size="14.00">+a : variable = undefined</text>
<text text-anchor="start" x="748.224" y="-271.895" font-family="Times New Roman,serif" font-size="14.00">+b : variable = undefined</text>
<polyline fill="none" stroke="black" points="740.224,-264.095 896.224,-264.095 "/>
<text text-anchor="start" x="748.224" y="-248.895" font-family="Times New Roman,serif" font-size="14.00">&#45;barFunc()</text>
<text text-anchor="start" x="748.224" y="-233.895" font-family="Times New Roman,serif" font-size="14.00">&#45;barFuncB()</text>
</g>
<!-- n1&#45;&gt;n7 -->
<g id="edge6" class="edge"><title>n1&#45;&gt;n7</title>
<path fill="none" stroke="black" d="M726.875,-345.085C731.759,-343.353 736.246,-341.704 740.398,-340.105"/>
<polygon fill="black" stroke="black" points="726.863,-345.089 722.504,-350.833 715.525,-349.019 719.884,-343.275 726.863,-345.089"/>
</g>
<!-- n1&#45;&gt;n2 -->
<g id="edge7" class="edge"><title>n1&#45;&gt;n2</title>
<path fill="none" stroke="black" d="M666.982,-337.263C683.514,-283.677 681.107,-270.571 653.66,-212.268"/>
<polygon fill="black" stroke="black" points="666.908,-337.499 668.917,-344.424 663.297,-348.943 661.288,-342.017 666.908,-337.499"/>
</g>
<!-- n2&#45;&gt;n3 -->
<g id="edge8" class="edge"><title>n2&#45;&gt;n3</title>
<path fill="none" stroke="black" d="M620.207,-165.052C599.329,-141.9 585.633,-131.125 561.979,-124.254"/>
<polygon fill="black" stroke="black" points="620.308,-165.166 627.279,-167.012 628.256,-174.157 621.285,-172.311 620.308,-165.166"/>
</g>
<!-- n2&#45;&gt;n7 -->
<g id="edge9" class="edge"><title>n2&#45;&gt;n7</title>
<path fill="none" stroke="black" d="M717.497,-216.16C727.947,-219.686 736.748,-222.889 744.393,-226.023"/>
<polygon fill="black" stroke="black" points="717.383,-216.122 710.431,-218.037 705.989,-212.357 712.941,-210.441 717.383,-216.122"/>
</g>
<!-- n5 -->
<g id="node8" class="node"><title>n5</title>
<polygon fill="aliceblue" stroke="black" points="671.885,-0.5 671.885,-91.5 849.885,-91.5 849.885,-0.5 671.885,-0.5"/>
<text text-anchor="middle" x="760.885" y="-76.3" font-family="Times New Roman,serif" font-size="14.00">«JavaScript»</text>
<text text-anchor="middle" x="760.885" y="-61.3" font-family="Times New Roman,serif" font-size="14.00">website_example/js/sClass.js</text>
<polyline fill="none" stroke="black" points="671.885,-53.5 849.885,-53.5 "/>
<text text-anchor="start" x="679.885" y="-38.3" font-family="Times New Roman,serif" font-size="14.00">+c : variable = undefined</text>
<text text-anchor="start" x="679.885" y="-23.3" font-family="Times New Roman,serif" font-size="14.00">+d : variable = undefined</text>
<text text-anchor="start" x="679.885" y="-8.3" font-family="Times New Roman,serif" font-size="14.00">+fooClass : object</text>
</g>
<!-- n2&#45;&gt;n5 -->
<g id="edge10" class="edge"><title>n2&#45;&gt;n5</title>
<path fill="none" stroke="black" d="M671.637,-164.811C707.613,-126.847 723.881,-108.865 735.653,-91.5993"/>
<polygon fill="black" stroke="black" points="671.39,-165.072 670.161,-172.177 663.129,-173.776 664.358,-166.67 671.39,-165.072"/>
</g>
<!-- n6&#45;&gt;n16 -->
<g id="edge11" class="edge"><title>n6&#45;&gt;n16</title>
<path fill="none" stroke="red" stroke-dasharray="5,2" d="M166.42,-305.745C148.571,-302.513 135.771,-299.846 125.007,-296.995"/>
<polygon fill="red" stroke="red" points="125.79,-293.578 115.212,-294.18 123.856,-300.306 125.79,-293.578"/>
<text text-anchor="middle" x="111.056" y="-304.494" font-family="Times New Roman,serif" font-size="14.00" fill="red">«Require»</text>
</g>
</g>
</svg>
